<?xml version="1.0" encoding="utf-8"?>
<!-- Generator: Adobe Illustrator 24.2.0, SVG Export Plug-In . SVG Version: 6.00 Build 0)  -->
<svg version="1.1" id="Layer_1" xmlns="http://www.w3.org/2000/svg" xmlns:xlink="http://www.w3.org/1999/xlink" x="0px" y="0px"
	 viewBox="0 0 792 612" style="enable-background:new 0 0 792 612;" xml:space="preserve">
<style type="text/css">
	.st0{fill:#E6E6E6;}
	.st1{fill:none;stroke:#FF0000;stroke-linecap:round;stroke-miterlimit:10;}
</style>
<g>
	<path class="st0" d="M792,612"/>
	<path class="st0" d="M0,0"/>
	<path class="st1" d="M45,306c0-24.9,20.1-45,45-45s45,20.1,45,45s-20.1,45-45,45S45,330.9,45,306z"/>
	<path class="st1" d="M657,306c0-24.9,20.1-45,45-45s45,20.1,45,45s-20.1,45-45,45S657,330.9,657,306z"/>
	<path class="st1" d="M368,118l28-60l28,60H368z"/>
	<path class="st1" d="M368,494l28,60l28-60H368z"/>
	<path class="st1" d="M60,224l18.7-40l18.7,40H60z"/>
	<path class="st1" d="M280.8,134.4l-11.2-24l-11.2,24H280.8z"/>
	<path class="st1" d="M245.3,78.7l18.7-40l18.7,40H245.3z"/>
	<path class="st1" d="M147.2,221.6l11.2-24l11.2,24H147.2z"/>
	<path class="st1" d="M158,434l42,90l42-90H158z"/>
	<path class="st1" d="M633.9,434l-42,90l-42-90H633.9z"/>
	<path class="st1" d="M552,177l42-90l42,90H552z"/>
	<path class="st1" d="M240,177l-42-90l-42,90H240z"/>
	<path class="st1" d="M732,224l-18.7-40l-18.7,40H732z"/>
	<path class="st1" d="M511.1,134.4l11.2-24l11.4,24H511.1z"/>
	<path class="st1" d="M544.6,78.7l-16.6-40l-19.2,40H544.6z"/>
	<path class="st1" d="M644.7,221.6l-11.1-24l-11.3,24H644.7z"/>
	<path class="st1" d="M60,387.5l18.7,39.4l18.7-39.4H60z"/>
	<path class="st1" d="M280.8,477.5l-11.2,24l-11.2-24H280.8z"/>
	<path class="st1" d="M245.3,533.3l18.7,40l18.7-40H245.3z"/>
	<path class="st1" d="M147.2,390.2l11.2,24.1l11.2-24.1H147.2z"/>
	<path class="st1" d="M732,387.5l-18.7,39.4l-18.7-39.4H732z"/>
	<path class="st1" d="M511.1,477.5l11.2,24l11.4-24H511.1z"/>
	<path class="st1" d="M544.6,533.3l-16.6,40l-19.2-40H544.6z"/>
	<path class="st1" d="M644.7,390.2l-11.1,24.1l-11.3-24.1H644.7z"/>
	<path class="st1" d="M246,306c0-82.8,67.2-150,150-150s150,67.2,150,150s-67.2,150-150,150S246,388.8,246,306z"/>
	<path class="st1" d="M266,306c0-82.8,58.2-150,130-150s130,67.2,130,150s-58.2,150-130,150S266,388.8,266,306z"/>
	<path class="st1" d="M286,306c0-82.8,49.2-150,110-150s110,67.2,110,150s-49.2,150-110,150S286,388.8,286,306z"/>
	<path class="st1" d="M306,306c0-82.8,40.3-150,90-150s90,67.2,90,150s-40.3,150-90,150S306,388.8,306,306z"/>
	<path class="st1" d="M326,306c0-82.8,31.3-150,70-150s70,67.2,70,150s-31.3,150-70,150S326,388.8,326,306z"/>
	<path class="st1" d="M346,306c0-82.8,22.4-150,50-150s50,67.2,50,150s-22.4,150-50,150S346,388.8,346,306z"/>
	<path class="st1" d="M366,306c0-82.8,13.4-150,30-150s30,67.2,30,150s-13.4,150-30,150S366,388.8,366,306z"/>
	<path class="st1" d="M386,306c0-82.8,4.5-150,10-150s10,67.2,10,150s-4.5,150-10,150S386,388.8,386,306z"/>
	<path class="st1" d="M386,306c0-82.8,4.5-150,10-150s10,67.2,10,150s-4.5,150-10,150S386,388.8,386,306z"/>
	<path class="st1" d="M366,306c0-82.8,13.4-150,30-150s30,67.2,30,150s-13.4,150-30,150S366,388.8,366,306z"/>
	<path class="st1" d="M346,306c0-82.8,22.4-150,50-150s50,67.2,50,150s-22.4,150-50,150S346,388.8,346,306z"/>
	<path class="st1" d="M326,306c0-82.8,31.3-150,70-150s70,67.2,70,150s-31.3,150-70,150S326,388.8,326,306z"/>
	<path class="st1" d="M306,306c0-82.8,40.3-150,90-150s90,67.2,90,150s-40.3,150-90,150S306,388.8,306,306z"/>
	<path class="st1" d="M286,306c0-82.8,49.2-150,110-150s110,67.2,110,150s-49.2,150-110,150S286,388.8,286,306z"/>
	<path class="st1" d="M266,306c0-82.8,58.2-150,130-150s130,67.2,130,150s-58.2,150-130,150S266,388.8,266,306z"/>
	<path class="st1" d="M246,306c0-71.8,67.2-130,150-130s150,58.2,150,130s-67.2,130-150,130S246,377.8,246,306z"/>
	<path class="st1" d="M266,306c0-71.8,58.2-130,130-130s130,58.2,130,130s-58.2,130-130,130S266,377.8,266,306z"/>
	<path class="st1" d="M286,306c0-71.8,49.2-130,110-130s110,58.2,110,130s-49.2,130-110,130S286,377.8,286,306z"/>
	<path class="st1" d="M306,306c0-71.8,40.3-130,90-130s90,58.2,90,130s-40.3,130-90,130S306,377.8,306,306z"/>
	<path class="st1" d="M326,306c0-71.8,31.3-130,70-130s70,58.2,70,130s-31.3,130-70,130S326,377.8,326,306z"/>
	<path class="st1" d="M346,306c0-71.8,22.4-130,50-130s50,58.2,50,130s-22.4,130-50,130S346,377.8,346,306z"/>
	<path class="st1" d="M366,306c0-71.8,13.4-130,30-130s30,58.2,30,130s-13.4,130-30,130S366,377.8,366,306z"/>
	<path class="st1" d="M386,306c0-71.8,4.5-130,10-130s10,58.2,10,130s-4.5,130-10,130S386,377.8,386,306z"/>
	<path class="st1" d="M386,306c0-71.8,4.5-130,10-130s10,58.2,10,130s-4.5,130-10,130S386,377.8,386,306z"/>
	<path class="st1" d="M366,306c0-71.8,13.4-130,30-130s30,58.2,30,130s-13.4,130-30,130S366,377.8,366,306z"/>
	<path class="st1" d="M346,306c0-71.8,22.4-130,50-130s50,58.2,50,130s-22.4,130-50,130S346,377.8,346,306z"/>
	<path class="st1" d="M326,306c0-71.8,31.3-130,70-130s70,58.2,70,130s-31.3,130-70,130S326,377.8,326,306z"/>
	<path class="st1" d="M306,306c0-71.8,40.3-130,90-130s90,58.2,90,130s-40.3,130-90,130S306,377.8,306,306z"/>
	<path class="st1" d="M286,306c0-71.8,49.2-130,110-130s110,58.2,110,130s-49.2,130-110,130S286,377.8,286,306z"/>
	<path class="st1" d="M266,306c0-71.8,58.2-130,130-130s130,58.2,130,130s-58.2,130-130,130S266,377.8,266,306z"/>
	<path class="st1" d="M246,306c0-60.8,67.2-110,150-110s150,49.2,150,110s-67.2,110-150,110S246,366.8,246,306z"/>
	<path class="st1" d="M266,306c0-60.8,58.2-110,130-110s130,49.2,130,110s-58.2,110-130,110S266,366.8,266,306z"/>
	<path class="st1" d="M286,306c0-60.8,49.2-110,110-110s110,49.2,110,110s-49.2,110-110,110S286,366.8,286,306z"/>
	<path class="st1" d="M306,306c0-60.8,40.3-110,90-110s90,49.2,90,110s-40.3,110-90,110S306,366.8,306,306z"/>
	<path class="st1" d="M326,306c0-60.8,31.3-110,70-110s70,49.2,70,110s-31.3,110-70,110S326,366.8,326,306z"/>
	<path class="st1" d="M346,306c0-60.8,22.4-110,50-110s50,49.2,50,110s-22.4,110-50,110S346,366.8,346,306z"/>
	<path class="st1" d="M366,306c0-60.8,13.4-110,30-110s30,49.2,30,110s-13.4,110-30,110S366,366.8,366,306z"/>
	<path class="st1" d="M386,306c0-60.8,4.5-110,10-110s10,49.2,10,110s-4.5,110-10,110S386,366.8,386,306z"/>
	<path class="st1" d="M386,306c0-60.8,4.5-110,10-110s10,49.2,10,110s-4.5,110-10,110S386,366.8,386,306z"/>
	<path class="st1" d="M366,306c0-60.8,13.4-110,30-110s30,49.2,30,110s-13.4,110-30,110S366,366.8,366,306z"/>
	<path class="st1" d="M346,306c0-60.8,22.4-110,50-110s50,49.2,50,110s-22.4,110-50,110S346,366.8,346,306z"/>
	<path class="st1" d="M326,306c0-60.8,31.3-110,70-110s70,49.2,70,110s-31.3,110-70,110S326,366.8,326,306z"/>
	<path class="st1" d="M306,306c0-60.8,40.3-110,90-110s90,49.2,90,110s-40.3,110-90,110S306,366.8,306,306z"/>
	<path class="st1" d="M286,306c0-60.8,49.2-110,110-110s110,49.2,110,110s-49.2,110-110,110S286,366.8,286,306z"/>
	<path class="st1" d="M266,306c0-60.8,58.2-110,130-110s130,49.2,130,110s-58.2,110-130,110S266,366.8,266,306z"/>
	<path class="st1" d="M246,306c0-49.7,67.2-90,150-90s150,40.3,150,90s-67.2,90-150,90S246,355.7,246,306z"/>
	<path class="st1" d="M266,306c0-49.7,58.2-90,130-90s130,40.3,130,90s-58.2,90-130,90S266,355.7,266,306z"/>
	<path class="st1" d="M286,306c0-49.7,49.2-90,110-90s110,40.3,110,90s-49.2,90-110,90S286,355.7,286,306z"/>
	<path class="st1" d="M306,306c0-49.7,40.3-90,90-90s90,40.3,90,90s-40.3,90-90,90S306,355.7,306,306z"/>
	<path class="st1" d="M326,306c0-49.7,31.3-90,70-90s70,40.3,70,90s-31.3,90-70,90S326,355.7,326,306z"/>
	<path class="st1" d="M346,306c0-49.7,22.4-90,50-90s50,40.3,50,90s-22.4,90-50,90S346,355.7,346,306z"/>
	<path class="st1" d="M366,306c0-49.7,13.4-90,30-90s30,40.3,30,90s-13.4,90-30,90S366,355.7,366,306z"/>
	<path class="st1" d="M386,306c0-49.7,4.5-90,10-90s10,40.3,10,90s-4.5,90-10,90S386,355.7,386,306z"/>
	<path class="st1" d="M386,306c0-49.7,4.5-90,10-90s10,40.3,10,90s-4.5,90-10,90S386,355.7,386,306z"/>
	<path class="st1" d="M366,306c0-49.7,13.4-90,30-90s30,40.3,30,90s-13.4,90-30,90S366,355.7,366,306z"/>
	<path class="st1" d="M346,306c0-49.7,22.4-90,50-90s50,40.3,50,90s-22.4,90-50,90S346,355.7,346,306z"/>
	<path class="st1" d="M326,306c0-49.7,31.3-90,70-90s70,40.3,70,90s-31.3,90-70,90S326,355.7,326,306z"/>
	<path class="st1" d="M306,306c0-49.7,40.3-90,90-90s90,40.3,90,90s-40.3,90-90,90S306,355.7,306,306z"/>
	<path class="st1" d="M286,306c0-49.7,49.2-90,110-90s110,40.3,110,90s-49.2,90-110,90S286,355.7,286,306z"/>
	<path class="st1" d="M266,306c0-49.7,58.2-90,130-90s130,40.3,130,90s-58.2,90-130,90S266,355.7,266,306z"/>
	<path class="st1" d="M246,306c0-38.7,67.2-70,150-70s150,31.3,150,70s-67.2,70-150,70S246,344.7,246,306z"/>
	<path class="st1" d="M266,306c0-38.7,58.2-70,130-70s130,31.3,130,70s-58.2,70-130,70S266,344.7,266,306z"/>
	<path class="st1" d="M286,306c0-38.7,49.2-70,110-70s110,31.3,110,70s-49.2,70-110,70S286,344.7,286,306z"/>
	<path class="st1" d="M306,306c0-38.7,40.3-70,90-70s90,31.3,90,70s-40.3,70-90,70S306,344.7,306,306z"/>
	<path class="st1" d="M326,306c0-38.7,31.3-70,70-70s70,31.3,70,70s-31.3,70-70,70S326,344.7,326,306z"/>
	<path class="st1" d="M346,306c0-38.7,22.4-70,50-70s50,31.3,50,70s-22.4,70-50,70S346,344.7,346,306z"/>
	<path class="st1" d="M366,306c0-38.7,13.4-70,30-70s30,31.3,30,70s-13.4,70-30,70S366,344.7,366,306z"/>
	<path class="st1" d="M386,306c0-38.7,4.5-70,10-70s10,31.3,10,70s-4.5,70-10,70S386,344.7,386,306z"/>
	<path class="st1" d="M386,306c0-38.7,4.5-70,10-70s10,31.3,10,70s-4.5,70-10,70S386,344.7,386,306z"/>
	<path class="st1" d="M366,306c0-38.7,13.4-70,30-70s30,31.3,30,70s-13.4,70-30,70S366,344.7,366,306z"/>
	<path class="st1" d="M346,306c0-38.7,22.4-70,50-70s50,31.3,50,70s-22.4,70-50,70S346,344.7,346,306z"/>
	<path class="st1" d="M326,306c0-38.7,31.3-70,70-70s70,31.3,70,70s-31.3,70-70,70S326,344.7,326,306z"/>
	<path class="st1" d="M306,306c0-38.7,40.3-70,90-70s90,31.3,90,70s-40.3,70-90,70S306,344.7,306,306z"/>
	<path class="st1" d="M286,306c0-38.7,49.2-70,110-70s110,31.3,110,70s-49.2,70-110,70S286,344.7,286,306z"/>
	<path class="st1" d="M266,306c0-38.7,58.2-70,130-70s130,31.3,130,70s-58.2,70-130,70S266,344.7,266,306z"/>
	<path class="st1" d="M246,306c0-27.6,67.2-50,150-50s150,22.4,150,50s-67.2,50-150,50S246,333.6,246,306z"/>
	<path class="st1" d="M266,306c0-27.6,58.2-50,130-50s130,22.4,130,50s-58.2,50-130,50S266,333.6,266,306z"/>
	<path class="st1" d="M286,306c0-27.6,49.2-50,110-50s110,22.4,110,50s-49.2,50-110,50S286,333.6,286,306z"/>
	<path class="st1" d="M306,306c0-27.6,40.3-50,90-50s90,22.4,90,50s-40.3,50-90,50S306,333.6,306,306z"/>
	<path class="st1" d="M326,306c0-27.6,31.3-50,70-50s70,22.4,70,50s-31.3,50-70,50S326,333.6,326,306z"/>
	<path class="st1" d="M346,306c0-27.6,22.4-50,50-50s50,22.4,50,50s-22.4,50-50,50S346,333.6,346,306z"/>
	<path class="st1" d="M366,306c0-27.6,13.4-50,30-50s30,22.4,30,50s-13.4,50-30,50S366,333.6,366,306z"/>
	<path class="st1" d="M386,306c0-27.6,4.5-50,10-50s10,22.4,10,50s-4.5,50-10,50S386,333.6,386,306z"/>
	<path class="st1" d="M386,306c0-27.6,4.5-50,10-50s10,22.4,10,50s-4.5,50-10,50S386,333.6,386,306z"/>
	<path class="st1" d="M366,306c0-27.6,13.4-50,30-50s30,22.4,30,50s-13.4,50-30,50S366,333.6,366,306z"/>
	<path class="st1" d="M346,306c0-27.6,22.4-50,50-50s50,22.4,50,50s-22.4,50-50,50S346,333.6,346,306z"/>
	<path class="st1" d="M326,306c0-27.6,31.3-50,70-50s70,22.4,70,50s-31.3,50-70,50S326,333.6,326,306z"/>
	<path class="st1" d="M306,306c0-27.6,40.3-50,90-50s90,22.4,90,50s-40.3,50-90,50S306,333.6,306,306z"/>
	<path class="st1" d="M286,306c0-27.6,49.2-50,110-50s110,22.4,110,50s-49.2,50-110,50S286,333.6,286,306z"/>
	<path class="st1" d="M266,306c0-27.6,58.2-50,130-50s130,22.4,130,50s-58.2,50-130,50S266,333.6,266,306z"/>
	<path class="st1" d="M246,306c0-16.6,67.2-30,150-30s150,13.4,150,30s-67.2,30-150,30S246,322.6,246,306z"/>
	<path class="st1" d="M266,306c0-16.6,58.2-30,130-30s130,13.4,130,30s-58.2,30-130,30S266,322.6,266,306z"/>
	<path class="st1" d="M286,306c0-16.6,49.2-30,110-30s110,13.4,110,30s-49.2,30-110,30S286,322.6,286,306z"/>
	<path class="st1" d="M306,306c0-16.6,40.3-30,90-30s90,13.4,90,30s-40.3,30-90,30S306,322.6,306,306z"/>
	<path class="st1" d="M326,306c0-16.6,31.3-30,70-30s70,13.4,70,30s-31.3,30-70,30S326,322.6,326,306z"/>
	<path class="st1" d="M346,306c0-16.6,22.4-30,50-30s50,13.4,50,30s-22.4,30-50,30S346,322.6,346,306z"/>
	<path class="st1" d="M366,306c0-16.6,13.4-30,30-30s30,13.4,30,30s-13.4,30-30,30S366,322.6,366,306z"/>
	<path class="st1" d="M386,306c0-16.6,4.5-30,10-30s10,13.4,10,30s-4.5,30-10,30S386,322.6,386,306z"/>
	<path class="st1" d="M386,306c0-16.6,4.5-30,10-30s10,13.4,10,30s-4.5,30-10,30S386,322.6,386,306z"/>
	<path class="st1" d="M366,306c0-16.6,13.4-30,30-30s30,13.4,30,30s-13.4,30-30,30S366,322.6,366,306z"/>
	<path class="st1" d="M346,306c0-16.6,22.4-30,50-30s50,13.4,50,30s-22.4,30-50,30S346,322.6,346,306z"/>
	<path class="st1" d="M326,306c0-16.6,31.3-30,70-30s70,13.4,70,30s-31.3,30-70,30S326,322.6,326,306z"/>
	<path class="st1" d="M306,306c0-16.6,40.3-30,90-30s90,13.4,90,30s-40.3,30-90,30S306,322.6,306,306z"/>
	<path class="st1" d="M286,306c0-16.6,49.2-30,110-30s110,13.4,110,30s-49.2,30-110,30S286,322.6,286,306z"/>
	<path class="st1" d="M266,306c0-16.6,58.2-30,130-30s130,13.4,130,30s-58.2,30-130,30S266,322.6,266,306z"/>
	<path class="st1" d="M246,306c0-5.5,67.2-10,150-10s150,4.5,150,10s-67.2,10-150,10S246,311.5,246,306z"/>
	<path class="st1" d="M266,306c0-5.5,58.2-10,130-10s130,4.5,130,10s-58.2,10-130,10S266,311.5,266,306z"/>
	<path class="st1" d="M286,306c0-5.5,49.2-10,110-10s110,4.5,110,10s-49.2,10-110,10S286,311.5,286,306z"/>
	<path class="st1" d="M306,306c0-5.5,40.3-10,90-10s90,4.5,90,10s-40.3,10-90,10S306,311.5,306,306z"/>
	<path class="st1" d="M326,306c0-5.5,31.3-10,70-10s70,4.5,70,10s-31.3,10-70,10S326,311.5,326,306z"/>
	<path class="st1" d="M346,306c0-5.5,22.4-10,50-10s50,4.5,50,10s-22.4,10-50,10S346,311.5,346,306z"/>
	<path class="st1" d="M366,306c0-5.5,13.4-10,30-10s30,4.5,30,10s-13.4,10-30,10S366,311.5,366,306z"/>
	<path class="st1" d="M386,306c0-5.5,4.5-10,10-10s10,4.5,10,10s-4.5,10-10,10S386,311.5,386,306z"/>
	<path class="st1" d="M386,306c0-5.5,4.5-10,10-10s10,4.5,10,10s-4.5,10-10,10S386,311.5,386,306z"/>
	<path class="st1" d="M366,306c0-5.5,13.4-10,30-10s30,4.5,30,10s-13.4,10-30,10S366,311.5,366,306z"/>
	<path class="st1" d="M346,306c0-5.5,22.4-10,50-10s50,4.5,50,10s-22.4,10-50,10S346,311.5,346,306z"/>
	<path class="st1" d="M326,306c0-5.5,31.3-10,70-10s70,4.5,70,10s-31.3,10-70,10S326,311.5,326,306z"/>
	<path class="st1" d="M306,306c0-5.5,40.3-10,90-10s90,4.5,90,10s-40.3,10-90,10S306,311.5,306,306z"/>
	<path class="st1" d="M286,306c0-5.5,49.2-10,110-10s110,4.5,110,10s-49.2,10-110,10S286,311.5,286,306z"/>
	<path class="st1" d="M266,306c0-5.5,58.2-10,130-10s130,4.5,130,10s-58.2,10-130,10S266,311.5,266,306z"/>
	<path class="st1" d="M246,306c0-5.5,67.2-10,150-10s150,4.5,150,10s-67.2,10-150,10S246,311.5,246,306z"/>
	<path class="st1" d="M266,306c0-5.5,58.2-10,130-10s130,4.5,130,10s-58.2,10-130,10S266,311.5,266,306z"/>
	<path class="st1" d="M286,306c0-5.5,49.2-10,110-10s110,4.5,110,10s-49.2,10-110,10S286,311.5,286,306z"/>
	<path class="st1" d="M306,306c0-5.5,40.3-10,90-10s90,4.5,90,10s-40.3,10-90,10S306,311.5,306,306z"/>
	<path class="st1" d="M326,306c0-5.5,31.3-10,70-10s70,4.5,70,10s-31.3,10-70,10S326,311.5,326,306z"/>
	<path class="st1" d="M346,306c0-5.5,22.4-10,50-10s50,4.5,50,10s-22.4,10-50,10S346,311.5,346,306z"/>
	<path class="st1" d="M366,306c0-5.5,13.4-10,30-10s30,4.5,30,10s-13.4,10-30,10S366,311.5,366,306z"/>
	<path class="st1" d="M386,306c0-5.5,4.5-10,10-10s10,4.5,10,10s-4.5,10-10,10S386,311.5,386,306z"/>
	<path class="st1" d="M386,306c0-5.5,4.5-10,10-10s10,4.5,10,10s-4.5,10-10,10S386,311.5,386,306z"/>
	<path class="st1" d="M366,306c0-5.5,13.4-10,30-10s30,4.5,30,10s-13.4,10-30,10S366,311.5,366,306z"/>
	<path class="st1" d="M346,306c0-5.5,22.4-10,50-10s50,4.5,50,10s-22.4,10-50,10S346,311.5,346,306z"/>
	<path class="st1" d="M326,306c0-5.5,31.3-10,70-10s70,4.5,70,10s-31.3,10-70,10S326,311.5,326,306z"/>
	<path class="st1" d="M306,306c0-5.5,40.3-10,90-10s90,4.5,90,10s-40.3,10-90,10S306,311.5,306,306z"/>
	<path class="st1" d="M286,306c0-5.5,49.2-10,110-10s110,4.5,110,10s-49.2,10-110,10S286,311.5,286,306z"/>
	<path class="st1" d="M266,306c0-5.5,58.2-10,130-10s130,4.5,130,10s-58.2,10-130,10S266,311.5,266,306z"/>
	<path class="st1" d="M246,306c0-16.6,67.2-30,150-30s150,13.4,150,30s-67.2,30-150,30S246,322.6,246,306z"/>
	<path class="st1" d="M266,306c0-16.6,58.2-30,130-30s130,13.4,130,30s-58.2,30-130,30S266,322.6,266,306z"/>
	<path class="st1" d="M286,306c0-16.6,49.2-30,110-30s110,13.4,110,30s-49.2,30-110,30S286,322.6,286,306z"/>
	<path class="st1" d="M306,306c0-16.6,40.3-30,90-30s90,13.4,90,30s-40.3,30-90,30S306,322.6,306,306z"/>
	<path class="st1" d="M326,306c0-16.6,31.3-30,70-30s70,13.4,70,30s-31.3,30-70,30S326,322.6,326,306z"/>
	<path class="st1" d="M346,306c0-16.6,22.4-30,50-30s50,13.4,50,30s-22.4,30-50,30S346,322.6,346,306z"/>
	<path class="st1" d="M366,306c0-16.6,13.4-30,30-30s30,13.4,30,30s-13.4,30-30,30S366,322.6,366,306z"/>
	<path class="st1" d="M386,306c0-16.6,4.5-30,10-30s10,13.4,10,30s-4.5,30-10,30S386,322.6,386,306z"/>
	<path class="st1" d="M386,306c0-16.6,4.5-30,10-30s10,13.4,10,30s-4.5,30-10,30S386,322.6,386,306z"/>
	<path class="st1" d="M366,306c0-16.6,13.4-30,30-30s30,13.4,30,30s-13.4,30-30,30S366,322.6,366,306z"/>
	<path class="st1" d="M346,306c0-16.6,22.4-30,50-30s50,13.4,50,30s-22.4,30-50,30S346,322.6,346,306z"/>
	<path class="st1" d="M326,306c0-16.6,31.3-30,70-30s70,13.4,70,30s-31.3,30-70,30S326,322.6,326,306z"/>
	<path class="st1" d="M306,306c0-16.6,40.3-30,90-30s90,13.4,90,30s-40.3,30-90,30S306,322.6,306,306z"/>
	<path class="st1" d="M286,306c0-16.6,49.2-30,110-30s110,13.4,110,30s-49.2,30-110,30S286,322.6,286,306z"/>
	<path class="st1" d="M266,306c0-16.6,58.2-30,130-30s130,13.4,130,30s-58.2,30-130,30S266,322.6,266,306z"/>
	<path class="st1" d="M246,306c0-27.6,67.2-50,150-50s150,22.4,150,50s-67.2,50-150,50S246,333.6,246,306z"/>
	<path class="st1" d="M266,306c0-27.6,58.2-50,130-50s130,22.4,130,50s-58.2,50-130,50S266,333.6,266,306z"/>
	<path class="st1" d="M286,306c0-27.6,49.2-50,110-50s110,22.4,110,50s-49.2,50-110,50S286,333.6,286,306z"/>
	<path class="st1" d="M306,306c0-27.6,40.3-50,90-50s90,22.4,90,50s-40.3,50-90,50S306,333.6,306,306z"/>
	<path class="st1" d="M326,306c0-27.6,31.3-50,70-50s70,22.4,70,50s-31.3,50-70,50S326,333.6,326,306z"/>
	<path class="st1" d="M346,306c0-27.6,22.4-50,50-50s50,22.4,50,50s-22.4,50-50,50S346,333.6,346,306z"/>
	<path class="st1" d="M366,306c0-27.6,13.4-50,30-50s30,22.4,30,50s-13.4,50-30,50S366,333.6,366,306z"/>
	<path class="st1" d="M386,306c0-27.6,4.5-50,10-50s10,22.4,10,50s-4.5,50-10,50S386,333.6,386,306z"/>
	<path class="st1" d="M386,306c0-27.6,4.5-50,10-50s10,22.4,10,50s-4.5,50-10,50S386,333.6,386,306z"/>
	<path class="st1" d="M366,306c0-27.6,13.4-50,30-50s30,22.4,30,50s-13.4,50-30,50S366,333.6,366,306z"/>
	<path class="st1" d="M346,306c0-27.6,22.4-50,50-50s50,22.4,50,50s-22.4,50-50,50S346,333.6,346,306z"/>
	<path class="st1" d="M326,306c0-27.6,31.3-50,70-50s70,22.4,70,50s-31.3,50-70,50S326,333.6,326,306z"/>
	<path class="st1" d="M306,306c0-27.6,40.3-50,90-50s90,22.4,90,50s-40.3,50-90,50S306,333.6,306,306z"/>
	<path class="st1" d="M286,306c0-27.6,49.2-50,110-50s110,22.4,110,50s-49.2,50-110,50S286,333.6,286,306z"/>
	<path class="st1" d="M266,306c0-27.6,58.2-50,130-50s130,22.4,130,50s-58.2,50-130,50S266,333.6,266,306z"/>
	<path class="st1" d="M246,306c0-38.7,67.2-70,150-70s150,31.3,150,70s-67.2,70-150,70S246,344.7,246,306z"/>
	<path class="st1" d="M266,306c0-38.7,58.2-70,130-70s130,31.3,130,70s-58.2,70-130,70S266,344.7,266,306z"/>
	<path class="st1" d="M286,306c0-38.7,49.2-70,110-70s110,31.3,110,70s-49.2,70-110,70S286,344.7,286,306z"/>
	<path class="st1" d="M306,306c0-38.7,40.3-70,90-70s90,31.3,90,70s-40.3,70-90,70S306,344.7,306,306z"/>
	<path class="st1" d="M326,306c0-38.7,31.3-70,70-70s70,31.3,70,70s-31.3,70-70,70S326,344.7,326,306z"/>
	<path class="st1" d="M346,306c0-38.7,22.4-70,50-70s50,31.3,50,70s-22.4,70-50,70S346,344.7,346,306z"/>
	<path class="st1" d="M366,306c0-38.7,13.4-70,30-70s30,31.3,30,70s-13.4,70-30,70S366,344.7,366,306z"/>
	<path class="st1" d="M386,306c0-38.7,4.5-70,10-70s10,31.3,10,70s-4.5,70-10,70S386,344.7,386,306z"/>
	<path class="st1" d="M386,306c0-38.7,4.5-70,10-70s10,31.3,10,70s-4.5,70-10,70S386,344.7,386,306z"/>
	<path class="st1" d="M366,306c0-38.7,13.4-70,30-70s30,31.3,30,70s-13.4,70-30,70S366,344.7,366,306z"/>
	<path class="st1" d="M346,306c0-38.7,22.4-70,50-70s50,31.3,50,70s-22.4,70-50,70S346,344.7,346,306z"/>
	<path class="st1" d="M326,306c0-38.7,31.3-70,70-70s70,31.3,70,70s-31.3,70-70,70S326,344.7,326,306z"/>
	<path class="st1" d="M306,306c0-38.7,40.3-70,90-70s90,31.3,90,70s-40.3,70-90,70S306,344.7,306,306z"/>
	<path class="st1" d="M286,306c0-38.7,49.2-70,110-70s110,31.3,110,70s-49.2,70-110,70S286,344.7,286,306z"/>
	<path class="st1" d="M266,306c0-38.7,58.2-70,130-70s130,31.3,130,70s-58.2,70-130,70S266,344.7,266,306z"/>
	<path class="st1" d="M246,306c0-49.7,67.2-90,150-90s150,40.3,150,90s-67.2,90-150,90S246,355.7,246,306z"/>
	<path class="st1" d="M266,306c0-49.7,58.2-90,130-90s130,40.3,130,90s-58.2,90-130,90S266,355.7,266,306z"/>
	<path class="st1" d="M286,306c0-49.7,49.2-90,110-90s110,40.3,110,90s-49.2,90-110,90S286,355.7,286,306z"/>
	<path class="st1" d="M306,306c0-49.7,40.3-90,90-90s90,40.3,90,90s-40.3,90-90,90S306,355.7,306,306z"/>
	<path class="st1" d="M326,306c0-49.7,31.3-90,70-90s70,40.3,70,90s-31.3,90-70,90S326,355.7,326,306z"/>
	<path class="st1" d="M346,306c0-49.7,22.4-90,50-90s50,40.3,50,90s-22.4,90-50,90S346,355.7,346,306z"/>
	<path class="st1" d="M366,306c0-49.7,13.4-90,30-90s30,40.3,30,90s-13.4,90-30,90S366,355.7,366,306z"/>
	<path class="st1" d="M386,306c0-49.7,4.5-90,10-90s10,40.3,10,90s-4.5,90-10,90S386,355.7,386,306z"/>
	<path class="st1" d="M386,306c0-49.7,4.5-90,10-90s10,40.3,10,90s-4.5,90-10,90S386,355.7,386,306z"/>
	<path class="st1" d="M366,306c0-49.7,13.4-90,30-90s30,40.3,30,90s-13.4,90-30,90S366,355.7,366,306z"/>
	<path class="st1" d="M346,306c0-49.7,22.4-90,50-90s50,40.3,50,90s-22.4,90-50,90S346,355.7,346,306z"/>
	<path class="st1" d="M326,306c0-49.7,31.3-90,70-90s70,40.3,70,90s-31.3,90-70,90S326,355.7,326,306z"/>
	<path class="st1" d="M306,306c0-49.7,40.3-90,90-90s90,40.3,90,90s-40.3,90-90,90S306,355.7,306,306z"/>
	<path class="st1" d="M286,306c0-49.7,49.2-90,110-90s110,40.3,110,90s-49.2,90-110,90S286,355.7,286,306z"/>
	<path class="st1" d="M266,306c0-49.7,58.2-90,130-90s130,40.3,130,90s-58.2,90-130,90S266,355.7,266,306z"/>
	<path class="st1" d="M246,306c0-60.8,67.2-110,150-110s150,49.2,150,110s-67.2,110-150,110S246,366.8,246,306z"/>
	<path class="st1" d="M266,306c0-60.8,58.2-110,130-110s130,49.2,130,110s-58.2,110-130,110S266,366.8,266,306z"/>
	<path class="st1" d="M286,306c0-60.8,49.2-110,110-110s110,49.2,110,110s-49.2,110-110,110S286,366.8,286,306z"/>
	<path class="st1" d="M306,306c0-60.8,40.3-110,90-110s90,49.2,90,110s-40.3,110-90,110S306,366.8,306,306z"/>
	<path class="st1" d="M326,306c0-60.8,31.3-110,70-110s70,49.2,70,110s-31.3,110-70,110S326,366.8,326,306z"/>
	<path class="st1" d="M346,306c0-60.8,22.4-110,50-110s50,49.2,50,110s-22.4,110-50,110S346,366.8,346,306z"/>
	<path class="st1" d="M366,306c0-60.8,13.4-110,30-110s30,49.2,30,110s-13.4,110-30,110S366,366.8,366,306z"/>
	<path class="st1" d="M386,306c0-60.8,4.5-110,10-110s10,49.2,10,110s-4.5,110-10,110S386,366.8,386,306z"/>
	<path class="st1" d="M386,306c0-60.8,4.5-110,10-110s10,49.2,10,110s-4.5,110-10,110S386,366.8,386,306z"/>
	<path class="st1" d="M366,306c0-60.8,13.4-110,30-110s30,49.2,30,110s-13.4,110-30,110S366,366.8,366,306z"/>
	<path class="st1" d="M346,306c0-60.8,22.4-110,50-110s50,49.2,50,110s-22.4,110-50,110S346,366.8,346,306z"/>
	<path class="st1" d="M326,306c0-60.8,31.3-110,70-110s70,49.2,70,110s-31.3,110-70,110S326,366.8,326,306z"/>
	<path class="st1" d="M306,306c0-60.8,40.3-110,90-110s90,49.2,90,110s-40.3,110-90,110S306,366.8,306,306z"/>
	<path class="st1" d="M286,306c0-60.8,49.2-110,110-110s110,49.2,110,110s-49.2,110-110,110S286,366.8,286,306z"/>
	<path class="st1" d="M266,306c0-60.8,58.2-110,130-110s130,49.2,130,110s-58.2,110-130,110S266,366.8,266,306z"/>
	<path class="st1" d="M246,306c0-71.8,67.2-130,150-130s150,58.2,150,130s-67.2,130-150,130S246,377.8,246,306z"/>
	<path class="st1" d="M266,306c0-71.8,58.2-130,130-130s130,58.2,130,130s-58.2,130-130,130S266,377.8,266,306z"/>
	<path class="st1" d="M286,306c0-71.8,49.2-130,110-130s110,58.2,110,130s-49.2,130-110,130S286,377.8,286,306z"/>
	<path class="st1" d="M306,306c0-71.8,40.3-130,90-130s90,58.2,90,130s-40.3,130-90,130S306,377.8,306,306z"/>
	<path class="st1" d="M326,306c0-71.8,31.3-130,70-130s70,58.2,70,130s-31.3,130-70,130S326,377.8,326,306z"/>
	<path class="st1" d="M346,306c0-71.8,22.4-130,50-130s50,58.2,50,130s-22.4,130-50,130S346,377.8,346,306z"/>
	<path class="st1" d="M366,306c0-71.8,13.4-130,30-130s30,58.2,30,130s-13.4,130-30,130S366,377.8,366,306z"/>
	<path class="st1" d="M386,306c0-71.8,4.5-130,10-130s10,58.2,10,130s-4.5,130-10,130S386,377.8,386,306z"/>
	<path class="st1" d="M386,306c0-71.8,4.5-130,10-130s10,58.2,10,130s-4.5,130-10,130S386,377.8,386,306z"/>
	<path class="st1" d="M366,306c0-71.8,13.4-130,30-130s30,58.2,30,130s-13.4,130-30,130S366,377.8,366,306z"/>
	<path class="st1" d="M346,306c0-71.8,22.4-130,50-130s50,58.2,50,130s-22.4,130-50,130S346,377.8,346,306z"/>
	<path class="st1" d="M326,306c0-71.8,31.3-130,70-130s70,58.2,70,130s-31.3,130-70,130S326,377.8,326,306z"/>
	<path class="st1" d="M306,306c0-71.8,40.3-130,90-130s90,58.2,90,130s-40.3,130-90,130S306,377.8,306,306z"/>
	<path class="st1" d="M286,306c0-71.8,49.2-130,110-130s110,58.2,110,130s-49.2,130-110,130S286,377.8,286,306z"/>
	<path class="st1" d="M266,306c0-71.8,58.2-130,130-130s130,58.2,130,130s-58.2,130-130,130S266,377.8,266,306z"/>
	<path class="st1" d="M642,612c0-82.8,67.2-150,150-150"/>
	<path class="st1" d="M662,612c0-82.8,58.2-150,130-150"/>
	<path class="st1" d="M682,612c0-82.8,49.2-150,110-150"/>
	<path class="st1" d="M702,612c0-82.8,40.3-150,90-150"/>
	<path class="st1" d="M722,612c0-82.8,31.3-150,70-150"/>
	<path class="st1" d="M742,612c0-82.8,22.4-150,50-150"/>
	<path class="st1" d="M762,612c0-82.8,13.4-150,30-150"/>
	<path class="st1" d="M782,612c0-82.8,4.5-150,10-150"/>
	<path class="st1" d="M782,612c0-82.8,4.5-150,10-150"/>
	<path class="st1" d="M762,612c0-82.8,13.4-150,30-150"/>
	<path class="st1" d="M742,612c0-82.8,22.4-150,50-150"/>
	<path class="st1" d="M722,612c0-82.8,31.3-150,70-150"/>
	<path class="st1" d="M702,612c0-82.8,40.3-150,90-150"/>
	<path class="st1" d="M682,612c0-82.8,49.2-150,110-150"/>
	<path class="st1" d="M662,612c0-82.8,58.2-150,130-150"/>
	<path class="st1" d="M642,612c0-71.8,67.2-130,150-130"/>
	<path class="st1" d="M662,612c0-71.8,58.2-130,130-130"/>
	<path class="st1" d="M682,612c0-71.8,49.2-130,110-130"/>
	<path class="st1" d="M702,612c0-71.8,40.3-130,90-130"/>
	<path class="st1" d="M722,612c0-71.8,31.3-130,70-130"/>
	<path class="st1" d="M742,612c0-71.8,22.4-130,50-130"/>
	<path class="st1" d="M762,612c0-71.8,13.4-130,30-130"/>
	<path class="st1" d="M782,612c0-71.8,4.5-130,10-130"/>
	<path class="st1" d="M782,612c0-71.8,4.5-130,10-130"/>
	<path class="st1" d="M762,612c0-71.8,13.4-130,30-130"/>
	<path class="st1" d="M742,612c0-71.8,22.4-130,50-130"/>
	<path class="st1" d="M722,612c0-71.8,31.3-130,70-130"/>
	<path class="st1" d="M702,612c0-71.8,40.3-130,90-130"/>
	<path class="st1" d="M682,612c0-71.8,49.2-130,110-130"/>
	<path class="st1" d="M662,612c0-71.8,58.2-130,130-130"/>
	<path class="st1" d="M642,612c0-60.8,67.2-110,150-110"/>
	<path class="st1" d="M662,612c0-60.8,58.2-110,130-110"/>
	<path class="st1" d="M682,612c0-60.8,49.2-110,110-110"/>
	<path class="st1" d="M702,612c0-60.8,40.3-110,90-110"/>
	<path class="st1" d="M722,612c0-60.8,31.3-110,70-110"/>
	<path class="st1" d="M742,612c0-60.8,22.4-110,50-110"/>
	<path class="st1" d="M762,612c0-60.8,13.4-110,30-110"/>
	<path class="st1" d="M782,612c0-60.8,4.5-110,10-110"/>
	<path class="st1" d="M782,612c0-60.8,4.5-110,10-110"/>
	<path class="st1" d="M762,612c0-60.8,13.4-110,30-110"/>
	<path class="st1" d="M742,612c0-60.8,22.4-110,50-110"/>
	<path class="st1" d="M722,612c0-60.8,31.3-110,70-110"/>
	<path class="st1" d="M702,612c0-60.8,40.3-110,90-110"/>
	<path class="st1" d="M682,612c0-60.8,49.2-110,110-110"/>
	<path class="st1" d="M662,612c0-60.8,58.2-110,130-110"/>
	<path class="st1" d="M642,612c0-49.7,67.2-90,150-90"/>
	<path class="st1" d="M662,612c0-49.7,58.2-90,130-90"/>
	<path class="st1" d="M682,612c0-49.7,49.2-90,110-90"/>
	<path class="st1" d="M702,612c0-49.7,40.3-90,90-90"/>
	<path class="st1" d="M722,612c0-49.7,31.3-90,70-90"/>
	<path class="st1" d="M742,612c0-49.7,22.4-90,50-90"/>
	<path class="st1" d="M762,612c0-49.7,13.4-90,30-90"/>
	<path class="st1" d="M782,612c0-49.7,4.5-90,10-90"/>
	<path class="st1" d="M782,612c0-49.7,4.5-90,10-90"/>
	<path class="st1" d="M762,612c0-49.7,13.4-90,30-90"/>
	<path class="st1" d="M742,612c0-49.7,22.4-90,50-90"/>
	<path class="st1" d="M722,612c0-49.7,31.3-90,70-90"/>
	<path class="st1" d="M702,612c0-49.7,40.3-90,90-90"/>
	<path class="st1" d="M682,612c0-49.7,49.2-90,110-90"/>
	<path class="st1" d="M662,612c0-49.7,58.2-90,130-90"/>
	<path class="st1" d="M642,612c0-38.7,67.2-70,150-70"/>
	<path class="st1" d="M662,612c0-38.7,58.2-70,130-70"/>
	<path class="st1" d="M682,612c0-38.7,49.2-70,110-70"/>
	<path class="st1" d="M702,612c0-38.7,40.3-70,90-70"/>
	<path class="st1" d="M722,612c0-38.7,31.3-70,70-70"/>
	<path class="st1" d="M742,612c0-38.7,22.4-70,50-70"/>
	<path class="st1" d="M762,612c0-38.7,13.4-70,30-70"/>
	<path class="st1" d="M782,612c0-38.7,4.5-70,10-70"/>
	<path class="st1" d="M782,612c0-38.7,4.5-70,10-70"/>
	<path class="st1" d="M762,612c0-38.7,13.4-70,30-70"/>
	<path class="st1" d="M742,612c0-38.7,22.4-70,50-70"/>
	<path class="st1" d="M722,612c0-38.7,31.3-70,70-70"/>
	<path class="st1" d="M702,612c0-38.7,40.3-70,90-70"/>
	<path class="st1" d="M682,612c0-38.7,49.2-70,110-70"/>
	<path class="st1" d="M662,612c0-38.7,58.2-70,130-70"/>
	<path class="st1" d="M642,612c0-27.6,67.2-50,150-50"/>
	<path class="st1" d="M662,612c0-27.6,58.2-50,130-50"/>
	<path class="st1" d="M682,612c0-27.6,49.2-50,110-50"/>
	<path class="st1" d="M702,612c0-27.6,40.3-50,90-50"/>
	<path class="st1" d="M722,612c0-27.6,31.3-50,70-50"/>
	<path class="st1" d="M742,612c0-27.6,22.4-50,50-50"/>
	<path class="st1" d="M762,612c0-27.6,13.4-50,30-50"/>
	<path class="st1" d="M782,612c0-27.6,4.5-50,10-50"/>
	<path class="st1" d="M782,612c0-27.6,4.5-50,10-50"/>
	<path class="st1" d="M762,612c0-27.6,13.4-50,30-50"/>
	<path class="st1" d="M742,612c0-27.6,22.4-50,50-50"/>
	<path class="st1" d="M722,612c0-27.6,31.3-50,70-50"/>
	<path class="st1" d="M702,612c0-27.6,40.3-50,90-50"/>
	<path class="st1" d="M682,612c0-27.6,49.2-50,110-50"/>
	<path class="st1" d="M662,612c0-27.6,58.2-50,130-50"/>
	<path class="st1" d="M642,612c0-16.6,67.2-30,150-30"/>
	<path class="st1" d="M662,612c0-16.6,58.2-30,130-30"/>
	<path class="st1" d="M682,612c0-16.6,49.2-30,110-30"/>
	<path class="st1" d="M702,612c0-16.6,40.3-30,90-30"/>
	<path class="st1" d="M722,612c0-16.6,31.3-30,70-30"/>
	<path class="st1" d="M742,612c0-16.6,22.4-30,50-30"/>
	<path class="st1" d="M762,612c0-16.6,13.4-30,30-30"/>
	<path class="st1" d="M782,612c0-16.6,4.5-30,10-30"/>
	<path class="st1" d="M782,612c0-16.6,4.5-30,10-30"/>
	<path class="st1" d="M762,612c0-16.6,13.4-30,30-30"/>
	<path class="st1" d="M742,612c0-16.6,22.4-30,50-30"/>
	<path class="st1" d="M722,612c0-16.6,31.3-30,70-30"/>
	<path class="st1" d="M702,612c0-16.6,40.3-30,90-30"/>
	<path class="st1" d="M682,612c0-16.6,49.2-30,110-30"/>
	<path class="st1" d="M662,612c0-16.6,58.2-30,130-30"/>
	<path class="st1" d="M642,612c0-5.5,67.2-10,150-10"/>
	<path class="st1" d="M662,612c0-5.5,58.2-10,130-10"/>
	<path class="st1" d="M682,612c0-5.5,49.2-10,110-10"/>
	<path class="st1" d="M702,612c0-5.5,40.3-10,90-10"/>
	<path class="st1" d="M722,612c0-5.5,31.3-10,70-10"/>
	<path class="st1" d="M742,612c0-5.5,22.4-10,50-10"/>
	<path class="st1" d="M762,612c0-5.5,13.4-10,30-10"/>
	<path class="st1" d="M782,612c0-5.5,4.5-10,10-10"/>
	<path class="st1" d="M782,612c0-5.5,4.5-10,10-10"/>
	<path class="st1" d="M762,612c0-5.5,13.4-10,30-10"/>
	<path class="st1" d="M742,612c0-5.5,22.4-10,50-10"/>
	<path class="st1" d="M722,612c0-5.5,31.3-10,70-10"/>
	<path class="st1" d="M702,612c0-5.5,40.3-10,90-10"/>
	<path class="st1" d="M682,612c0-5.5,49.2-10,110-10"/>
	<path class="st1" d="M662,612c0-5.5,58.2-10,130-10"/>
	<path class="st1" d="M642,612c0-5.5,67.2-10,150-10"/>
	<path class="st1" d="M662,612c0-5.5,58.2-10,130-10"/>
	<path class="st1" d="M682,612c0-5.5,49.2-10,110-10"/>
	<path class="st1" d="M702,612c0-5.5,40.3-10,90-10"/>
	<path class="st1" d="M722,612c0-5.5,31.3-10,70-10"/>
	<path class="st1" d="M742,612c0-5.5,22.4-10,50-10"/>
	<path class="st1" d="M762,612c0-5.5,13.4-10,30-10"/>
	<path class="st1" d="M782,612c0-5.5,4.5-10,10-10"/>
	<path class="st1" d="M782,612c0-5.5,4.5-10,10-10"/>
	<path class="st1" d="M762,612c0-5.5,13.4-10,30-10"/>
	<path class="st1" d="M742,612c0-5.5,22.4-10,50-10"/>
	<path class="st1" d="M722,612c0-5.5,31.3-10,70-10"/>
	<path class="st1" d="M702,612c0-5.5,40.3-10,90-10"/>
	<path class="st1" d="M682,612c0-5.5,49.2-10,110-10"/>
	<path class="st1" d="M662,612c0-5.5,58.2-10,130-10"/>
	<path class="st1" d="M642,612c0-16.6,67.2-30,150-30"/>
	<path class="st1" d="M662,612c0-16.6,58.2-30,130-30"/>
	<path class="st1" d="M682,612c0-16.6,49.2-30,110-30"/>
	<path class="st1" d="M702,612c0-16.6,40.3-30,90-30"/>
	<path class="st1" d="M722,612c0-16.6,31.3-30,70-30"/>
	<path class="st1" d="M742,612c0-16.6,22.4-30,50-30"/>
	<path class="st1" d="M762,612c0-16.6,13.4-30,30-30"/>
	<path class="st1" d="M782,612c0-16.6,4.5-30,10-30"/>
	<path class="st1" d="M782,612c0-16.6,4.5-30,10-30"/>
	<path class="st1" d="M762,612c0-16.6,13.4-30,30-30"/>
	<path class="st1" d="M742,612c0-16.6,22.4-30,50-30"/>
	<path class="st1" d="M722,612c0-16.6,31.3-30,70-30"/>
	<path class="st1" d="M702,612c0-16.6,40.3-30,90-30"/>
	<path class="st1" d="M682,612c0-16.6,49.2-30,110-30"/>
	<path class="st1" d="M662,612c0-16.6,58.2-30,130-30"/>
	<path class="st1" d="M642,612c0-27.6,67.2-50,150-50"/>
	<path class="st1" d="M662,612c0-27.6,58.2-50,130-50"/>
	<path class="st1" d="M682,612c0-27.6,49.2-50,110-50"/>
	<path class="st1" d="M702,612c0-27.6,40.3-50,90-50"/>
	<path class="st1" d="M722,612c0-27.6,31.3-50,70-50"/>
	<path class="st1" d="M742,612c0-27.6,22.4-50,50-50"/>
	<path class="st1" d="M762,612c0-27.6,13.4-50,30-50"/>
	<path class="st1" d="M782,612c0-27.6,4.5-50,10-50"/>
	<path class="st1" d="M782,612c0-27.6,4.5-50,10-50"/>
	<path class="st1" d="M762,612c0-27.6,13.4-50,30-50"/>
	<path class="st1" d="M742,612c0-27.6,22.4-50,50-50"/>
	<path class="st1" d="M722,612c0-27.6,31.3-50,70-50"/>
	<path class="st1" d="M702,612c0-27.6,40.3-50,90-50"/>
	<path class="st1" d="M682,612c0-27.6,49.2-50,110-50"/>
	<path class="st1" d="M662,612c0-27.6,58.2-50,130-50"/>
	<path class="st1" d="M642,612c0-38.7,67.2-70,150-70"/>
	<path class="st1" d="M662,612c0-38.7,58.2-70,130-70"/>
	<path class="st1" d="M682,612c0-38.7,49.2-70,110-70"/>
	<path class="st1" d="M702,612c0-38.7,40.3-70,90-70"/>
	<path class="st1" d="M722,612c0-38.7,31.3-70,70-70"/>
	<path class="st1" d="M742,612c0-38.7,22.4-70,50-70"/>
	<path class="st1" d="M762,612c0-38.7,13.4-70,30-70"/>
	<path class="st1" d="M782,612c0-38.7,4.5-70,10-70"/>
	<path class="st1" d="M782,612c0-38.7,4.5-70,10-70"/>
	<path class="st1" d="M762,612c0-38.7,13.4-70,30-70"/>
	<path class="st1" d="M742,612c0-38.7,22.4-70,50-70"/>
	<path class="st1" d="M722,612c0-38.7,31.3-70,70-70"/>
	<path class="st1" d="M702,612c0-38.7,40.3-70,90-70"/>
	<path class="st1" d="M682,612c0-38.7,49.2-70,110-70"/>
	<path class="st1" d="M662,612c0-38.7,58.2-70,130-70"/>
	<path class="st1" d="M642,612c0-49.7,67.2-90,150-90"/>
	<path class="st1" d="M662,612c0-49.7,58.2-90,130-90"/>
	<path class="st1" d="M682,612c0-49.7,49.2-90,110-90"/>
	<path class="st1" d="M702,612c0-49.7,40.3-90,90-90"/>
	<path class="st1" d="M722,612c0-49.7,31.3-90,70-90"/>
	<path class="st1" d="M742,612c0-49.7,22.4-90,50-90"/>
	<path class="st1" d="M762,612c0-49.7,13.4-90,30-90"/>
	<path class="st1" d="M782,612c0-49.7,4.5-90,10-90"/>
	<path class="st1" d="M782,612c0-49.7,4.5-90,10-90"/>
	<path class="st1" d="M762,612c0-49.7,13.4-90,30-90"/>
	<path class="st1" d="M742,612c0-49.7,22.4-90,50-90"/>
	<path class="st1" d="M722,612c0-49.7,31.3-90,70-90"/>
	<path class="st1" d="M702,612c0-49.7,40.3-90,90-90"/>
	<path class="st1" d="M682,612c0-49.7,49.2-90,110-90"/>
	<path class="st1" d="M662,612c0-49.7,58.2-90,130-90"/>
	<path class="st1" d="M642,612c0-60.8,67.2-110,150-110"/>
	<path class="st1" d="M662,612c0-60.8,58.2-110,130-110"/>
	<path class="st1" d="M682,612c0-60.8,49.2-110,110-110"/>
	<path class="st1" d="M702,612c0-60.8,40.3-110,90-110"/>
	<path class="st1" d="M722,612c0-60.8,31.3-110,70-110"/>
	<path class="st1" d="M742,612c0-60.8,22.4-110,50-110"/>
	<path class="st1" d="M762,612c0-60.8,13.4-110,30-110"/>
	<path class="st1" d="M782,612c0-60.8,4.5-110,10-110"/>
	<path class="st1" d="M782,612c0-60.8,4.5-110,10-110"/>
	<path class="st1" d="M762,612c0-60.8,13.4-110,30-110"/>
	<path class="st1" d="M742,612c0-60.8,22.4-110,50-110"/>
	<path class="st1" d="M722,612c0-60.8,31.3-110,70-110"/>
	<path class="st1" d="M702,612c0-60.8,40.3-110,90-110"/>
	<path class="st1" d="M682,612c0-60.8,49.2-110,110-110"/>
	<path class="st1" d="M662,612c0-60.8,58.2-110,130-110"/>
	<path class="st1" d="M642,612c0-71.8,67.2-130,150-130"/>
	<path class="st1" d="M662,612c0-71.8,58.2-130,130-130"/>
	<path class="st1" d="M682,612c0-71.8,49.2-130,110-130"/>
	<path class="st1" d="M702,612c0-71.8,40.3-130,90-130"/>
	<path class="st1" d="M722,612c0-71.8,31.3-130,70-130"/>
	<path class="st1" d="M742,612c0-71.8,22.4-130,50-130"/>
	<path class="st1" d="M762,612c0-71.8,13.4-130,30-130"/>
	<path class="st1" d="M782,612c0-71.8,4.5-130,10-130"/>
	<path class="st1" d="M782,612c0-71.8,4.5-130,10-130"/>
	<path class="st1" d="M762,612c0-71.8,13.4-130,30-130"/>
	<path class="st1" d="M742,612c0-71.8,22.4-130,50-130"/>
	<path class="st1" d="M722,612c0-71.8,31.3-130,70-130"/>
	<path class="st1" d="M702,612c0-71.8,40.3-130,90-130"/>
	<path class="st1" d="M682,612c0-71.8,49.2-130,110-130"/>
	<path class="st1" d="M662,612c0-71.8,58.2-130,130-130"/>
	<path class="st1" d="M792,150c-82.8,0-150-67.2-150-150"/>
	<path class="st1" d="M792,150c-71.8,0-130-67.2-130-150"/>
	<path class="st1" d="M792,150c-60.8,0-110-67.2-110-150"/>
	<path class="st1" d="M792,150c-49.7,0-90-67.2-90-150"/>
	<path class="st1" d="M792,150c-38.7,0-70-67.2-70-150"/>
	<path class="st1" d="M792,150c-27.6,0-50-67.2-50-150"/>
	<path class="st1" d="M792,150c-16.6,0-30-67.2-30-150"/>
	<path class="st1" d="M792,150c-5.5,0-10-67.2-10-150"/>
	<path class="st1" d="M792,150c-5.5,0-10-67.2-10-150"/>
	<path class="st1" d="M792,150c-16.6,0-30-67.2-30-150"/>
	<path class="st1" d="M792,150c-27.6,0-50-67.2-50-150"/>
	<path class="st1" d="M792,150c-38.7,0-70-67.2-70-150"/>
	<path class="st1" d="M792,150c-49.7,0-90-67.2-90-150"/>
	<path class="st1" d="M792,150c-60.8,0-110-67.2-110-150"/>
	<path class="st1" d="M792,150c-71.8,0-130-67.2-130-150"/>
	<path class="st1" d="M792,130c-82.8,0-150-58.2-150-130"/>
	<path class="st1" d="M792,130c-71.8,0-130-58.2-130-130"/>
	<path class="st1" d="M792,130c-60.8,0-110-58.2-110-130"/>
	<path class="st1" d="M792,130c-49.7,0-90-58.2-90-130"/>
	<path class="st1" d="M792,130c-38.7,0-70-58.2-70-130"/>
	<path class="st1" d="M792,130c-27.6,0-50-58.2-50-130"/>
	<path class="st1" d="M792,130c-16.6,0-30-58.2-30-130"/>
	<path class="st1" d="M792,130c-5.5,0-10-58.2-10-130"/>
	<path class="st1" d="M792,130c-5.5,0-10-58.2-10-130"/>
	<path class="st1" d="M792,130c-16.6,0-30-58.2-30-130"/>
	<path class="st1" d="M792,130c-27.6,0-50-58.2-50-130"/>
	<path class="st1" d="M792,130c-38.7,0-70-58.2-70-130"/>
	<path class="st1" d="M792,130c-49.7,0-90-58.2-90-130"/>
	<path class="st1" d="M792,130c-60.8,0-110-58.2-110-130"/>
	<path class="st1" d="M792,130c-71.8,0-130-58.2-130-130"/>
	<path class="st1" d="M792,110c-82.8,0-150-49.2-150-110"/>
	<path class="st1" d="M792,110c-71.8,0-130-49.2-130-110"/>
	<path class="st1" d="M792,110c-60.8,0-110-49.2-110-110"/>
	<path class="st1" d="M792,110c-49.7,0-90-49.2-90-110"/>
	<path class="st1" d="M792,110c-38.7,0-70-49.2-70-110"/>
	<path class="st1" d="M792,110c-27.6,0-50-49.2-50-110"/>
	<path class="st1" d="M792,110c-16.6,0-30-49.2-30-110"/>
	<path class="st1" d="M792,110c-5.5,0-10-49.2-10-110"/>
	<path class="st1" d="M792,110c-5.5,0-10-49.2-10-110"/>
	<path class="st1" d="M792,110c-16.6,0-30-49.2-30-110"/>
	<path class="st1" d="M792,110c-27.6,0-50-49.2-50-110"/>
	<path class="st1" d="M792,110c-38.7,0-70-49.2-70-110"/>
	<path class="st1" d="M792,110c-49.7,0-90-49.2-90-110"/>
	<path class="st1" d="M792,110c-60.8,0-110-49.2-110-110"/>
	<path class="st1" d="M792,110c-71.8,0-130-49.2-130-110"/>
	<path class="st1" d="M792,90c-82.8,0-150-40.3-150-90"/>
	<path class="st1" d="M792,90c-71.8,0-130-40.3-130-90"/>
	<path class="st1" d="M792,90c-60.8,0-110-40.3-110-90"/>
	<path class="st1" d="M792,90c-49.7,0-90-40.3-90-90"/>
	<path class="st1" d="M792,90c-38.7,0-70-40.3-70-90"/>
	<path class="st1" d="M792,90c-27.6,0-50-40.3-50-90"/>
	<path class="st1" d="M792,90c-16.6,0-30-40.3-30-90"/>
	<path class="st1" d="M792,90c-5.5,0-10-40.3-10-90"/>
	<path class="st1" d="M792,90c-5.5,0-10-40.3-10-90"/>
	<path class="st1" d="M792,90c-16.6,0-30-40.3-30-90"/>
	<path class="st1" d="M792,90c-27.6,0-50-40.3-50-90"/>
	<path class="st1" d="M792,90c-38.7,0-70-40.3-70-90"/>
	<path class="st1" d="M792,90c-49.7,0-90-40.3-90-90"/>
	<path class="st1" d="M792,90c-60.8,0-110-40.3-110-90"/>
	<path class="st1" d="M792,90c-71.8,0-130-40.3-130-90"/>
	<path class="st1" d="M792,70c-82.8,0-150-31.3-150-70"/>
	<path class="st1" d="M792,70c-71.8,0-130-31.3-130-70"/>
	<path class="st1" d="M792,70c-60.8,0-110-31.3-110-70"/>
	<path class="st1" d="M792,70c-49.7,0-90-31.3-90-70"/>
	<path class="st1" d="M792,70c-38.7,0-70-31.3-70-70"/>
	<path class="st1" d="M792,70c-27.6,0-50-31.3-50-70"/>
	<path class="st1" d="M792,70c-16.6,0-30-31.3-30-70"/>
	<path class="st1" d="M792,70c-5.5,0-10-31.3-10-70"/>
	<path class="st1" d="M792,70c-5.5,0-10-31.3-10-70"/>
	<path class="st1" d="M792,70c-16.6,0-30-31.3-30-70"/>
	<path class="st1" d="M792,70c-27.6,0-50-31.3-50-70"/>
	<path class="st1" d="M792,70c-38.7,0-70-31.3-70-70"/>
	<path class="st1" d="M792,70c-49.7,0-90-31.3-90-70"/>
	<path class="st1" d="M792,70c-60.8,0-110-31.3-110-70"/>
	<path class="st1" d="M792,70c-71.8,0-130-31.3-130-70"/>
	<path class="st1" d="M792,50c-82.8,0-150-22.4-150-50"/>
	<path class="st1" d="M792,50c-71.8,0-130-22.4-130-50"/>
	<path class="st1" d="M792,50c-60.8,0-110-22.4-110-50"/>
	<path class="st1" d="M792,50c-49.7,0-90-22.4-90-50"/>
	<path class="st1" d="M792,50c-38.7,0-70-22.4-70-50"/>
	<path class="st1" d="M792,50c-27.6,0-50-22.4-50-50"/>
	<path class="st1" d="M792,50c-16.6,0-30-22.4-30-50"/>
	<path class="st1" d="M792,50c-5.5,0-10-22.4-10-50"/>
	<path class="st1" d="M792,50c-5.5,0-10-22.4-10-50"/>
	<path class="st1" d="M792,50c-16.6,0-30-22.4-30-50"/>
	<path class="st1" d="M792,50c-27.6,0-50-22.4-50-50"/>
	<path class="st1" d="M792,50c-38.7,0-70-22.4-70-50"/>
	<path class="st1" d="M792,50c-49.7,0-90-22.4-90-50"/>
	<path class="st1" d="M792,50c-60.8,0-110-22.4-110-50"/>
	<path class="st1" d="M792,50c-71.8,0-130-22.4-130-50"/>
	<path class="st1" d="M792,30c-82.8,0-150-13.4-150-30"/>
	<path class="st1" d="M792,30c-71.8,0-130-13.4-130-30"/>
	<path class="st1" d="M792,30c-60.8,0-110-13.4-110-30"/>
	<path class="st1" d="M792,30c-49.7,0-90-13.4-90-30"/>
	<path class="st1" d="M792,30c-38.7,0-70-13.4-70-30"/>
	<path class="st1" d="M792,30c-27.6,0-50-13.4-50-30"/>
	<path class="st1" d="M792,30c-16.6,0-30-13.4-30-30"/>
	<path class="st1" d="M792,30c-5.5,0-10-13.4-10-30"/>
	<path class="st1" d="M792,30c-5.5,0-10-13.4-10-30"/>
	<path class="st1" d="M792,30c-16.6,0-30-13.4-30-30"/>
	<path class="st1" d="M792,30c-27.6,0-50-13.4-50-30"/>
	<path class="st1" d="M792,30c-38.7,0-70-13.4-70-30"/>
	<path class="st1" d="M792,30c-49.7,0-90-13.4-90-30"/>
	<path class="st1" d="M792,30c-60.8,0-110-13.4-110-30"/>
	<path class="st1" d="M792,30c-71.8,0-130-13.4-130-30"/>
	<path class="st1" d="M792,10c-82.8,0-150-4.5-150-10"/>
	<path class="st1" d="M792,10c-71.8,0-130-4.5-130-10"/>
	<path class="st1" d="M792,10c-60.8,0-110-4.5-110-10"/>
	<path class="st1" d="M792,10c-49.7,0-90-4.5-90-10"/>
	<path class="st1" d="M792,10c-38.7,0-70-4.5-70-10"/>
	<path class="st1" d="M792,10c-27.6,0-50-4.5-50-10"/>
	<path class="st1" d="M792,10c-16.6,0-30-4.5-30-10"/>
	<path class="st1" d="M792,10c-5.5,0-10-4.5-10-10"/>
	<path class="st1" d="M792,10c-5.5,0-10-4.5-10-10"/>
	<path class="st1" d="M792,10c-16.6,0-30-4.5-30-10"/>
	<path class="st1" d="M792,10c-27.6,0-50-4.5-50-10"/>
	<path class="st1" d="M792,10c-38.7,0-70-4.5-70-10"/>
	<path class="st1" d="M792,10c-49.7,0-90-4.5-90-10"/>
	<path class="st1" d="M792,10c-60.8,0-110-4.5-110-10"/>
	<path class="st1" d="M792,10c-71.8,0-130-4.5-130-10"/>
	<path class="st1" d="M792,10c-82.8,0-150-4.5-150-10"/>
	<path class="st1" d="M792,10c-71.8,0-130-4.5-130-10"/>
	<path class="st1" d="M792,10c-60.8,0-110-4.5-110-10"/>
	<path class="st1" d="M792,10c-49.7,0-90-4.5-90-10"/>
	<path class="st1" d="M792,10c-38.7,0-70-4.5-70-10"/>
	<path class="st1" d="M792,10c-27.6,0-50-4.5-50-10"/>
	<path class="st1" d="M792,10c-16.6,0-30-4.5-30-10"/>
	<path class="st1" d="M792,10c-5.5,0-10-4.5-10-10"/>
	<path class="st1" d="M792,10c-5.5,0-10-4.5-10-10"/>
	<path class="st1" d="M792,10c-16.6,0-30-4.5-30-10"/>
	<path class="st1" d="M792,10c-27.6,0-50-4.5-50-10"/>
	<path class="st1" d="M792,10c-38.7,0-70-4.5-70-10"/>
	<path class="st1" d="M792,10c-49.7,0-90-4.5-90-10"/>
	<path class="st1" d="M792,10c-60.8,0-110-4.5-110-10"/>
	<path class="st1" d="M792,10c-71.8,0-130-4.5-130-10"/>
	<path class="st1" d="M792,30c-82.8,0-150-13.4-150-30"/>
	<path class="st1" d="M792,30c-71.8,0-130-13.4-130-30"/>
	<path class="st1" d="M792,30c-60.8,0-110-13.4-110-30"/>
	<path class="st1" d="M792,30c-49.7,0-90-13.4-90-30"/>
	<path class="st1" d="M792,30c-38.7,0-70-13.4-70-30"/>
	<path class="st1" d="M792,30c-27.6,0-50-13.4-50-30"/>
	<path class="st1" d="M792,30c-16.6,0-30-13.4-30-30"/>
	<path class="st1" d="M792,30c-5.5,0-10-13.4-10-30"/>
	<path class="st1" d="M792,30c-5.5,0-10-13.4-10-30"/>
	<path class="st1" d="M792,30c-16.6,0-30-13.4-30-30"/>
	<path class="st1" d="M792,30c-27.6,0-50-13.4-50-30"/>
	<path class="st1" d="M792,30c-38.7,0-70-13.4-70-30"/>
	<path class="st1" d="M792,30c-49.7,0-90-13.4-90-30"/>
	<path class="st1" d="M792,30c-60.8,0-110-13.4-110-30"/>
	<path class="st1" d="M792,30c-71.8,0-130-13.4-130-30"/>
	<path class="st1" d="M792,50c-82.8,0-150-22.4-150-50"/>
	<path class="st1" d="M792,50c-71.8,0-130-22.4-130-50"/>
	<path class="st1" d="M792,50c-60.8,0-110-22.4-110-50"/>
	<path class="st1" d="M792,50c-49.7,0-90-22.4-90-50"/>
	<path class="st1" d="M792,50c-38.7,0-70-22.4-70-50"/>
	<path class="st1" d="M792,50c-27.6,0-50-22.4-50-50"/>
	<path class="st1" d="M792,50c-16.6,0-30-22.4-30-50"/>
	<path class="st1" d="M792,50c-5.5,0-10-22.4-10-50"/>
	<path class="st1" d="M792,50c-5.5,0-10-22.4-10-50"/>
	<path class="st1" d="M792,50c-16.6,0-30-22.4-30-50"/>
	<path class="st1" d="M792,50c-27.6,0-50-22.4-50-50"/>
	<path class="st1" d="M792,50c-38.7,0-70-22.4-70-50"/>
	<path class="st1" d="M792,50c-49.7,0-90-22.4-90-50"/>
	<path class="st1" d="M792,50c-60.8,0-110-22.4-110-50"/>
	<path class="st1" d="M792,50c-71.8,0-130-22.4-130-50"/>
	<path class="st1" d="M792,70c-82.8,0-150-31.3-150-70"/>
	<path class="st1" d="M792,70c-71.8,0-130-31.3-130-70"/>
	<path class="st1" d="M792,70c-60.8,0-110-31.3-110-70"/>
	<path class="st1" d="M792,70c-49.7,0-90-31.3-90-70"/>
	<path class="st1" d="M792,70c-38.7,0-70-31.3-70-70"/>
	<path class="st1" d="M792,70c-27.6,0-50-31.3-50-70"/>
	<path class="st1" d="M792,70c-16.6,0-30-31.3-30-70"/>
	<path class="st1" d="M792,70c-5.5,0-10-31.3-10-70"/>
	<path class="st1" d="M792,70c-5.5,0-10-31.3-10-70"/>
	<path class="st1" d="M792,70c-16.6,0-30-31.3-30-70"/>
	<path class="st1" d="M792,70c-27.6,0-50-31.3-50-70"/>
	<path class="st1" d="M792,70c-38.7,0-70-31.3-70-70"/>
	<path class="st1" d="M792,70c-49.7,0-90-31.3-90-70"/>
	<path class="st1" d="M792,70c-60.8,0-110-31.3-110-70"/>
	<path class="st1" d="M792,70c-71.8,0-130-31.3-130-70"/>
	<path class="st1" d="M792,90c-82.8,0-150-40.3-150-90"/>
	<path class="st1" d="M792,90c-71.8,0-130-40.3-130-90"/>
	<path class="st1" d="M792,90c-60.8,0-110-40.3-110-90"/>
	<path class="st1" d="M792,90c-49.7,0-90-40.3-90-90"/>
	<path class="st1" d="M792,90c-38.7,0-70-40.3-70-90"/>
	<path class="st1" d="M792,90c-27.6,0-50-40.3-50-90"/>
	<path class="st1" d="M792,90c-16.6,0-30-40.3-30-90"/>
	<path class="st1" d="M792,90c-5.5,0-10-40.3-10-90"/>
	<path class="st1" d="M792,90c-5.5,0-10-40.3-10-90"/>
	<path class="st1" d="M792,90c-16.6,0-30-40.3-30-90"/>
	<path class="st1" d="M792,90c-27.6,0-50-40.3-50-90"/>
	<path class="st1" d="M792,90c-38.7,0-70-40.3-70-90"/>
	<path class="st1" d="M792,90c-49.7,0-90-40.3-90-90"/>
	<path class="st1" d="M792,90c-60.8,0-110-40.3-110-90"/>
	<path class="st1" d="M792,90c-71.8,0-130-40.3-130-90"/>
	<path class="st1" d="M792,110c-82.8,0-150-49.2-150-110"/>
	<path class="st1" d="M792,110c-71.8,0-130-49.2-130-110"/>
	<path class="st1" d="M792,110c-60.8,0-110-49.2-110-110"/>
	<path class="st1" d="M792,110c-49.7,0-90-49.2-90-110"/>
	<path class="st1" d="M792,110c-38.7,0-70-49.2-70-110"/>
	<path class="st1" d="M792,110c-27.6,0-50-49.2-50-110"/>
	<path class="st1" d="M792,110c-16.6,0-30-49.2-30-110"/>
	<path class="st1" d="M792,110c-5.5,0-10-49.2-10-110"/>
	<path class="st1" d="M792,110c-5.5,0-10-49.2-10-110"/>
	<path class="st1" d="M792,110c-16.6,0-30-49.2-30-110"/>
	<path class="st1" d="M792,110c-27.6,0-50-49.2-50-110"/>
	<path class="st1" d="M792,110c-38.7,0-70-49.2-70-110"/>
	<path class="st1" d="M792,110c-49.7,0-90-49.2-90-110"/>
	<path class="st1" d="M792,110c-60.8,0-110-49.2-110-110"/>
	<path class="st1" d="M792,110c-71.8,0-130-49.2-130-110"/>
	<path class="st1" d="M792,130c-82.8,0-150-58.2-150-130"/>
	<path class="st1" d="M792,130c-71.8,0-130-58.2-130-130"/>
	<path class="st1" d="M792,130c-60.8,0-110-58.2-110-130"/>
	<path class="st1" d="M792,130c-49.7,0-90-58.2-90-130"/>
	<path class="st1" d="M792,130c-38.7,0-70-58.2-70-130"/>
	<path class="st1" d="M792,130c-27.6,0-50-58.2-50-130"/>
	<path class="st1" d="M792,130c-16.6,0-30-58.2-30-130"/>
	<path class="st1" d="M792,130c-5.5,0-10-58.2-10-130"/>
	<path class="st1" d="M792,130c-5.5,0-10-58.2-10-130"/>
	<path class="st1" d="M792,130c-16.6,0-30-58.2-30-130"/>
	<path class="st1" d="M792,130c-27.6,0-50-58.2-50-130"/>
	<path class="st1" d="M792,130c-38.7,0-70-58.2-70-130"/>
	<path class="st1" d="M792,130c-49.7,0-90-58.2-90-130"/>
	<path class="st1" d="M792,130c-60.8,0-110-58.2-110-130"/>
	<path class="st1" d="M792,130c-71.8,0-130-58.2-130-130"/>
	<path class="st1" d="M0,462c82.8,0,150,67.2,150,150"/>
	<path class="st1" d="M0,462c71.8,0,130,67.2,130,150"/>
	<path class="st1" d="M0,462c60.8,0,110,67.2,110,150"/>
	<path class="st1" d="M0,462c49.7,0,90,67.2,90,150"/>
	<path class="st1" d="M0,462c38.7,0,70,67.2,70,150"/>
	<path class="st1" d="M0,462c27.6,0,50,67.2,50,150"/>
	<path class="st1" d="M0,462c16.6,0,30,67.2,30,150"/>
	<path class="st1" d="M0,462c5.5,0,10,67.2,10,150"/>
	<path class="st1" d="M0,462c5.5,0,10,67.2,10,150"/>
	<path class="st1" d="M0,462c16.6,0,30,67.2,30,150"/>
	<path class="st1" d="M0,462c27.6,0,50,67.2,50,150"/>
	<path class="st1" d="M0,462c38.7,0,70,67.2,70,150"/>
	<path class="st1" d="M0,462c49.7,0,90,67.2,90,150"/>
	<path class="st1" d="M0,462c60.8,0,110,67.2,110,150"/>
	<path class="st1" d="M0,462c71.8,0,130,67.2,130,150"/>
	<path class="st1" d="M0,482c82.8,0,150,58.2,150,130"/>
	<path class="st1" d="M0,482c71.8,0,130,58.2,130,130"/>
	<path class="st1" d="M0,482c60.8,0,110,58.2,110,130"/>
	<path class="st1" d="M0,482c49.7,0,90,58.2,90,130"/>
	<path class="st1" d="M0,482c38.7,0,70,58.2,70,130"/>
	<path class="st1" d="M0,482c27.6,0,50,58.2,50,130"/>
	<path class="st1" d="M0,482c16.6,0,30,58.2,30,130"/>
	<path class="st1" d="M0,482c5.5,0,10,58.2,10,130"/>
	<path class="st1" d="M0,482c5.5,0,10,58.2,10,130"/>
	<path class="st1" d="M0,482c16.6,0,30,58.2,30,130"/>
	<path class="st1" d="M0,482c27.6,0,50,58.2,50,130"/>
	<path class="st1" d="M0,482c38.7,0,70,58.2,70,130"/>
	<path class="st1" d="M0,482c49.7,0,90,58.2,90,130"/>
	<path class="st1" d="M0,482c60.8,0,110,58.2,110,130"/>
	<path class="st1" d="M0,482c71.8,0,130,58.2,130,130"/>
	<path class="st1" d="M0,502c82.8,0,150,49.2,150,110"/>
	<path class="st1" d="M0,502c71.8,0,130,49.2,130,110"/>
	<path class="st1" d="M0,502c60.8,0,110,49.2,110,110"/>
	<path class="st1" d="M0,502c49.7,0,90,49.2,90,110"/>
	<path class="st1" d="M0,502c38.7,0,70,49.2,70,110"/>
	<path class="st1" d="M0,502c27.6,0,50,49.2,50,110"/>
	<path class="st1" d="M0,502c16.6,0,30,49.2,30,110"/>
	<path class="st1" d="M0,502c5.5,0,10,49.2,10,110"/>
	<path class="st1" d="M0,502c5.5,0,10,49.2,10,110"/>
	<path class="st1" d="M0,502c16.6,0,30,49.2,30,110"/>
	<path class="st1" d="M0,502c27.6,0,50,49.2,50,110"/>
	<path class="st1" d="M0,502c38.7,0,70,49.2,70,110"/>
	<path class="st1" d="M0,502c49.7,0,90,49.2,90,110"/>
	<path class="st1" d="M0,502c60.8,0,110,49.2,110,110"/>
	<path class="st1" d="M0,502c71.8,0,130,49.2,130,110"/>
	<path class="st1" d="M0,522c82.8,0,150,40.3,150,90"/>
	<path class="st1" d="M0,522c71.8,0,130,40.3,130,90"/>
	<path class="st1" d="M0,522c60.8,0,110,40.3,110,90"/>
	<path class="st1" d="M0,522c49.7,0,90,40.3,90,90"/>
	<path class="st1" d="M0,522c38.7,0,70,40.3,70,90"/>
	<path class="st1" d="M0,522c27.6,0,50,40.3,50,90"/>
	<path class="st1" d="M0,522c16.6,0,30,40.3,30,90"/>
	<path class="st1" d="M0,522c5.5,0,10,40.3,10,90"/>
	<path class="st1" d="M0,522c5.5,0,10,40.3,10,90"/>
	<path class="st1" d="M0,522c16.6,0,30,40.3,30,90"/>
	<path class="st1" d="M0,522c27.6,0,50,40.3,50,90"/>
	<path class="st1" d="M0,522c38.7,0,70,40.3,70,90"/>
	<path class="st1" d="M0,522c49.7,0,90,40.3,90,90"/>
	<path class="st1" d="M0,522c60.8,0,110,40.3,110,90"/>
	<path class="st1" d="M0,522c71.8,0,130,40.3,130,90"/>
	<path class="st1" d="M0,542c82.8,0,150,31.3,150,70"/>
	<path class="st1" d="M0,542c71.8,0,130,31.3,130,70"/>
	<path class="st1" d="M0,542c60.8,0,110,31.3,110,70"/>
	<path class="st1" d="M0,542c49.7,0,90,31.3,90,70"/>
	<path class="st1" d="M0,542c38.7,0,70,31.3,70,70"/>
	<path class="st1" d="M0,542c27.6,0,50,31.3,50,70"/>
	<path class="st1" d="M0,542c16.6,0,30,31.3,30,70"/>
	<path class="st1" d="M0,542c5.5,0,10,31.3,10,70"/>
	<path class="st1" d="M0,542c5.5,0,10,31.3,10,70"/>
	<path class="st1" d="M0,542c16.6,0,30,31.3,30,70"/>
	<path class="st1" d="M0,542c27.6,0,50,31.3,50,70"/>
	<path class="st1" d="M0,542c38.7,0,70,31.3,70,70"/>
	<path class="st1" d="M0,542c49.7,0,90,31.3,90,70"/>
	<path class="st1" d="M0,542c60.8,0,110,31.3,110,70"/>
	<path class="st1" d="M0,542c71.8,0,130,31.3,130,70"/>
	<path class="st1" d="M0,562c82.8,0,150,22.4,150,50"/>
	<path class="st1" d="M0,562c71.8,0,130,22.4,130,50"/>
	<path class="st1" d="M0,562c60.8,0,110,22.4,110,50"/>
	<path class="st1" d="M0,562c49.7,0,90,22.4,90,50"/>
	<path class="st1" d="M0,562c38.7,0,70,22.4,70,50"/>
	<path class="st1" d="M0,562c27.6,0,50,22.4,50,50"/>
	<path class="st1" d="M0,562c16.6,0,30,22.4,30,50"/>
	<path class="st1" d="M0,562c5.5,0,10,22.4,10,50"/>
	<path class="st1" d="M0,562c5.5,0,10,22.4,10,50"/>
	<path class="st1" d="M0,562c16.6,0,30,22.4,30,50"/>
	<path class="st1" d="M0,562c27.6,0,50,22.4,50,50"/>
	<path class="st1" d="M0,562c38.7,0,70,22.4,70,50"/>
	<path class="st1" d="M0,562c49.7,0,90,22.4,90,50"/>
	<path class="st1" d="M0,562c60.8,0,110,22.4,110,50"/>
	<path class="st1" d="M0,562c71.8,0,130,22.4,130,50"/>
	<path class="st1" d="M0,582c82.8,0,150,13.4,150,30"/>
	<path class="st1" d="M0,582c71.8,0,130,13.4,130,30"/>
	<path class="st1" d="M0,582c60.8,0,110,13.4,110,30"/>
	<path class="st1" d="M0,582c49.7,0,90,13.4,90,30"/>
	<path class="st1" d="M0,582c38.7,0,70,13.4,70,30"/>
	<path class="st1" d="M0,582c27.6,0,50,13.4,50,30"/>
	<path class="st1" d="M0,582c16.6,0,30,13.4,30,30"/>
	<path class="st1" d="M0,582c5.5,0,10,13.4,10,30"/>
	<path class="st1" d="M0,582c5.5,0,10,13.4,10,30"/>
	<path class="st1" d="M0,582c16.6,0,30,13.4,30,30"/>
	<path class="st1" d="M0,582c27.6,0,50,13.4,50,30"/>
	<path class="st1" d="M0,582c38.7,0,70,13.4,70,30"/>
	<path class="st1" d="M0,582c49.7,0,90,13.4,90,30"/>
	<path class="st1" d="M0,582c60.8,0,110,13.4,110,30"/>
	<path class="st1" d="M0,582c71.8,0,130,13.4,130,30"/>
	<path class="st1" d="M0,602c82.8,0,150,4.5,150,10"/>
	<path class="st1" d="M0,602c71.8,0,130,4.5,130,10"/>
	<path class="st1" d="M0,602c60.8,0,110,4.5,110,10"/>
	<path class="st1" d="M0,602c49.7,0,90,4.5,90,10"/>
	<path class="st1" d="M0,602c38.7,0,70,4.5,70,10"/>
	<path class="st1" d="M0,602c27.6,0,50,4.5,50,10"/>
	<path class="st1" d="M0,602c16.6,0,30,4.5,30,10"/>
	<path class="st1" d="M0,602c5.5,0,10,4.5,10,10"/>
	<path class="st1" d="M0,602c5.5,0,10,4.5,10,10"/>
	<path class="st1" d="M0,602c16.6,0,30,4.5,30,10"/>
	<path class="st1" d="M0,602c27.6,0,50,4.5,50,10"/>
	<path class="st1" d="M0,602c38.7,0,70,4.5,70,10"/>
	<path class="st1" d="M0,602c49.7,0,90,4.5,90,10"/>
	<path class="st1" d="M0,602c60.8,0,110,4.5,110,10"/>
	<path class="st1" d="M0,602c71.8,0,130,4.5,130,10"/>
	<path class="st1" d="M0,602c82.8,0,150,4.5,150,10"/>
	<path class="st1" d="M0,602c71.8,0,130,4.5,130,10"/>
	<path class="st1" d="M0,602c60.8,0,110,4.5,110,10"/>
	<path class="st1" d="M0,602c49.7,0,90,4.5,90,10"/>
	<path class="st1" d="M0,602c38.7,0,70,4.5,70,10"/>
	<path class="st1" d="M0,602c27.6,0,50,4.5,50,10"/>
	<path class="st1" d="M0,602c16.6,0,30,4.5,30,10"/>
	<path class="st1" d="M0,602c5.5,0,10,4.5,10,10"/>
	<path class="st1" d="M0,602c5.5,0,10,4.5,10,10"/>
	<path class="st1" d="M0,602c16.6,0,30,4.5,30,10"/>
	<path class="st1" d="M0,602c27.6,0,50,4.5,50,10"/>
	<path class="st1" d="M0,602c38.7,0,70,4.5,70,10"/>
	<path class="st1" d="M0,602c49.7,0,90,4.5,90,10"/>
	<path class="st1" d="M0,602c60.8,0,110,4.5,110,10"/>
	<path class="st1" d="M0,602c71.8,0,130,4.5,130,10"/>
	<path class="st1" d="M0,582c82.8,0,150,13.4,150,30"/>
	<path class="st1" d="M0,582c71.8,0,130,13.4,130,30"/>
	<path class="st1" d="M0,582c60.8,0,110,13.4,110,30"/>
	<path class="st1" d="M0,582c49.7,0,90,13.4,90,30"/>
	<path class="st1" d="M0,582c38.7,0,70,13.4,70,30"/>
	<path class="st1" d="M0,582c27.6,0,50,13.4,50,30"/>
	<path class="st1" d="M0,582c16.6,0,30,13.4,30,30"/>
	<path class="st1" d="M0,582c5.5,0,10,13.4,10,30"/>
	<path class="st1" d="M0,582c5.5,0,10,13.4,10,30"/>
	<path class="st1" d="M0,582c16.6,0,30,13.4,30,30"/>
	<path class="st1" d="M0,582c27.6,0,50,13.4,50,30"/>
	<path class="st1" d="M0,582c38.7,0,70,13.4,70,30"/>
	<path class="st1" d="M0,582c49.7,0,90,13.4,90,30"/>
	<path class="st1" d="M0,582c60.8,0,110,13.4,110,30"/>
	<path class="st1" d="M0,582c71.8,0,130,13.4,130,30"/>
	<path class="st1" d="M0,562c82.8,0,150,22.4,150,50"/>
	<path class="st1" d="M0,562c71.8,0,130,22.4,130,50"/>
	<path class="st1" d="M0,562c60.8,0,110,22.4,110,50"/>
	<path class="st1" d="M0,562c49.7,0,90,22.4,90,50"/>
	<path class="st1" d="M0,562c38.7,0,70,22.4,70,50"/>
	<path class="st1" d="M0,562c27.6,0,50,22.4,50,50"/>
	<path class="st1" d="M0,562c16.6,0,30,22.4,30,50"/>
	<path class="st1" d="M0,562c5.5,0,10,22.4,10,50"/>
	<path class="st1" d="M0,562c5.5,0,10,22.4,10,50"/>
	<path class="st1" d="M0,562c16.6,0,30,22.4,30,50"/>
	<path class="st1" d="M0,562c27.6,0,50,22.4,50,50"/>
	<path class="st1" d="M0,562c38.7,0,70,22.4,70,50"/>
	<path class="st1" d="M0,562c49.7,0,90,22.4,90,50"/>
	<path class="st1" d="M0,562c60.8,0,110,22.4,110,50"/>
	<path class="st1" d="M0,562c71.8,0,130,22.4,130,50"/>
	<path class="st1" d="M0,542c82.8,0,150,31.3,150,70"/>
	<path class="st1" d="M0,542c71.8,0,130,31.3,130,70"/>
	<path class="st1" d="M0,542c60.8,0,110,31.3,110,70"/>
	<path class="st1" d="M0,542c49.7,0,90,31.3,90,70"/>
	<path class="st1" d="M0,542c38.7,0,70,31.3,70,70"/>
	<path class="st1" d="M0,542c27.6,0,50,31.3,50,70"/>
	<path class="st1" d="M0,542c16.6,0,30,31.3,30,70"/>
	<path class="st1" d="M0,542c5.5,0,10,31.3,10,70"/>
	<path class="st1" d="M0,542c5.5,0,10,31.3,10,70"/>
	<path class="st1" d="M0,542c16.6,0,30,31.3,30,70"/>
	<path class="st1" d="M0,542c27.6,0,50,31.3,50,70"/>
	<path class="st1" d="M0,542c38.7,0,70,31.3,70,70"/>
	<path class="st1" d="M0,542c49.7,0,90,31.3,90,70"/>
	<path class="st1" d="M0,542c60.8,0,110,31.3,110,70"/>
	<path class="st1" d="M0,542c71.8,0,130,31.3,130,70"/>
	<path class="st1" d="M0,522c82.8,0,150,40.3,150,90"/>
	<path class="st1" d="M0,522c71.8,0,130,40.3,130,90"/>
	<path class="st1" d="M0,522c60.8,0,110,40.3,110,90"/>
	<path class="st1" d="M0,522c49.7,0,90,40.3,90,90"/>
	<path class="st1" d="M0,522c38.7,0,70,40.3,70,90"/>
	<path class="st1" d="M0,522c27.6,0,50,40.3,50,90"/>
	<path class="st1" d="M0,522c16.6,0,30,40.3,30,90"/>
	<path class="st1" d="M0,522c5.5,0,10,40.3,10,90"/>
	<path class="st1" d="M0,522c5.5,0,10,40.3,10,90"/>
	<path class="st1" d="M0,522c16.6,0,30,40.3,30,90"/>
	<path class="st1" d="M0,522c27.6,0,50,40.3,50,90"/>
	<path class="st1" d="M0,522c38.7,0,70,40.3,70,90"/>
	<path class="st1" d="M0,522c49.7,0,90,40.3,90,90"/>
	<path class="st1" d="M0,522c60.8,0,110,40.3,110,90"/>
	<path class="st1" d="M0,522c71.8,0,130,40.3,130,90"/>
	<path class="st1" d="M0,502c82.8,0,150,49.2,150,110"/>
	<path class="st1" d="M0,502c71.8,0,130,49.2,130,110"/>
	<path class="st1" d="M0,502c60.8,0,110,49.2,110,110"/>
	<path class="st1" d="M0,502c49.7,0,90,49.2,90,110"/>
	<path class="st1" d="M0,502c38.7,0,70,49.2,70,110"/>
	<path class="st1" d="M0,502c27.6,0,50,49.2,50,110"/>
	<path class="st1" d="M0,502c16.6,0,30,49.2,30,110"/>
	<path class="st1" d="M0,502c5.5,0,10,49.2,10,110"/>
	<path class="st1" d="M0,502c5.5,0,10,49.2,10,110"/>
	<path class="st1" d="M0,502c16.6,0,30,49.2,30,110"/>
	<path class="st1" d="M0,502c27.6,0,50,49.2,50,110"/>
	<path class="st1" d="M0,502c38.7,0,70,49.2,70,110"/>
	<path class="st1" d="M0,502c49.7,0,90,49.2,90,110"/>
	<path class="st1" d="M0,502c60.8,0,110,49.2,110,110"/>
	<path class="st1" d="M0,502c71.8,0,130,49.2,130,110"/>
	<path class="st1" d="M0,482c82.8,0,150,58.2,150,130"/>
	<path class="st1" d="M0,482c71.8,0,130,58.2,130,130"/>
	<path class="st1" d="M0,482c60.8,0,110,58.2,110,130"/>
	<path class="st1" d="M0,482c49.7,0,90,58.2,90,130"/>
	<path class="st1" d="M0,482c38.7,0,70,58.2,70,130"/>
	<path class="st1" d="M0,482c27.6,0,50,58.2,50,130"/>
	<path class="st1" d="M0,482c16.6,0,30,58.2,30,130"/>
	<path class="st1" d="M0,482c5.5,0,10,58.2,10,130"/>
	<path class="st1" d="M0,482c5.5,0,10,58.2,10,130"/>
	<path class="st1" d="M0,482c16.6,0,30,58.2,30,130"/>
	<path class="st1" d="M0,482c27.6,0,50,58.2,50,130"/>
	<path class="st1" d="M0,482c38.7,0,70,58.2,70,130"/>
	<path class="st1" d="M0,482c49.7,0,90,58.2,90,130"/>
	<path class="st1" d="M0,482c60.8,0,110,58.2,110,130"/>
	<path class="st1" d="M0,482c71.8,0,130,58.2,130,130"/>
	<path class="st1" d="M150,0c0,82.8-67.2,150-150,150"/>
	<path class="st1" d="M130,0c0,82.8-58.2,150-130,150"/>
	<path class="st1" d="M110,0c0,82.8-49.2,150-110,150"/>
	<path class="st1" d="M90,0c0,82.8-40.3,150-90,150"/>
	<path class="st1" d="M70,0c0,82.8-31.3,150-70,150"/>
	<path class="st1" d="M50,0c0,82.8-22.4,150-50,150"/>
	<path class="st1" d="M30,0c0,82.8-13.4,150-30,150"/>
	<path class="st1" d="M10,0c0,82.8-4.5,150-10,150"/>
	<path class="st1" d="M10,0c0,82.8-4.5,150-10,150"/>
	<path class="st1" d="M30,0c0,82.8-13.4,150-30,150"/>
	<path class="st1" d="M50,0c0,82.8-22.4,150-50,150"/>
	<path class="st1" d="M70,0c0,82.8-31.3,150-70,150"/>
	<path class="st1" d="M90,0c0,82.8-40.3,150-90,150"/>
	<path class="st1" d="M110,0c0,82.8-49.2,150-110,150"/>
	<path class="st1" d="M130,0c0,82.8-58.2,150-130,150"/>
	<path class="st1" d="M150,0c0,71.8-67.2,130-150,130"/>
	<path class="st1" d="M130,0c0,71.8-58.2,130-130,130"/>
	<path class="st1" d="M110,0c0,71.8-49.2,130-110,130"/>
	<path class="st1" d="M90,0c0,71.8-40.3,130-90,130"/>
	<path class="st1" d="M70,0c0,71.8-31.3,130-70,130"/>
	<path class="st1" d="M50,0c0,71.8-22.4,130-50,130"/>
	<path class="st1" d="M30,0c0,71.8-13.4,130-30,130"/>
	<path class="st1" d="M10,0c0,71.8-4.5,130-10,130"/>
	<path class="st1" d="M10,0c0,71.8-4.5,130-10,130"/>
	<path class="st1" d="M30,0c0,71.8-13.4,130-30,130"/>
	<path class="st1" d="M50,0c0,71.8-22.4,130-50,130"/>
	<path class="st1" d="M70,0c0,71.8-31.3,130-70,130"/>
	<path class="st1" d="M90,0c0,71.8-40.3,130-90,130"/>
	<path class="st1" d="M110,0c0,71.8-49.2,130-110,130"/>
	<path class="st1" d="M130,0c0,71.8-58.2,130-130,130"/>
	<path class="st1" d="M150,0c0,60.8-67.2,110-150,110"/>
	<path class="st1" d="M130,0c0,60.8-58.2,110-130,110"/>
	<path class="st1" d="M110,0c0,60.8-49.2,110-110,110"/>
	<path class="st1" d="M90,0c0,60.8-40.3,110-90,110"/>
	<path class="st1" d="M70,0c0,60.8-31.3,110-70,110"/>
	<path class="st1" d="M50,0c0,60.8-22.4,110-50,110"/>
	<path class="st1" d="M30,0c0,60.8-13.4,110-30,110"/>
	<path class="st1" d="M10,0c0,60.8-4.5,110-10,110"/>
	<path class="st1" d="M10,0c0,60.8-4.5,110-10,110"/>
	<path class="st1" d="M30,0c0,60.8-13.4,110-30,110"/>
	<path class="st1" d="M50,0c0,60.8-22.4,110-50,110"/>
	<path class="st1" d="M70,0c0,60.8-31.3,110-70,110"/>
	<path class="st1" d="M90,0c0,60.8-40.3,110-90,110"/>
	<path class="st1" d="M110,0c0,60.8-49.2,110-110,110"/>
	<path class="st1" d="M130,0c0,60.8-58.2,110-130,110"/>
	<path class="st1" d="M150,0c0,49.7-67.2,90-150,90"/>
	<path class="st1" d="M130,0c0,49.7-58.2,90-130,90"/>
	<path class="st1" d="M110,0c0,49.7-49.2,90-110,90"/>
	<path class="st1" d="M90,0c0,49.7-40.3,90-90,90"/>
	<path class="st1" d="M70,0c0,49.7-31.3,90-70,90"/>
	<path class="st1" d="M50,0c0,49.7-22.4,90-50,90"/>
	<path class="st1" d="M30,0c0,49.7-13.4,90-30,90"/>
	<path class="st1" d="M10,0c0,49.7-4.5,90-10,90"/>
	<path class="st1" d="M10,0c0,49.7-4.5,90-10,90"/>
	<path class="st1" d="M30,0c0,49.7-13.4,90-30,90"/>
	<path class="st1" d="M50,0c0,49.7-22.4,90-50,90"/>
	<path class="st1" d="M70,0c0,49.7-31.3,90-70,90"/>
	<path class="st1" d="M90,0c0,49.7-40.3,90-90,90"/>
	<path class="st1" d="M110,0c0,49.7-49.2,90-110,90"/>
	<path class="st1" d="M130,0c0,49.7-58.2,90-130,90"/>
	<path class="st1" d="M150,0c0,38.7-67.2,70-150,70"/>
	<path class="st1" d="M130,0c0,38.7-58.2,70-130,70"/>
	<path class="st1" d="M110,0c0,38.7-49.2,70-110,70"/>
	<path class="st1" d="M90,0c0,38.7-40.3,70-90,70"/>
	<path class="st1" d="M70,0c0,38.7-31.3,70-70,70"/>
	<path class="st1" d="M50,0c0,38.7-22.4,70-50,70"/>
	<path class="st1" d="M30,0c0,38.7-13.4,70-30,70"/>
	<path class="st1" d="M10,0c0,38.7-4.5,70-10,70"/>
	<path class="st1" d="M10,0c0,38.7-4.5,70-10,70"/>
	<path class="st1" d="M30,0c0,38.7-13.4,70-30,70"/>
	<path class="st1" d="M50,0c0,38.7-22.4,70-50,70"/>
	<path class="st1" d="M70,0c0,38.7-31.3,70-70,70"/>
	<path class="st1" d="M90,0c0,38.7-40.3,70-90,70"/>
	<path class="st1" d="M110,0c0,38.7-49.2,70-110,70"/>
	<path class="st1" d="M130,0c0,38.7-58.2,70-130,70"/>
	<path class="st1" d="M150,0c0,27.6-67.2,50-150,50"/>
	<path class="st1" d="M130,0c0,27.6-58.2,50-130,50"/>
	<path class="st1" d="M110,0c0,27.6-49.2,50-110,50"/>
	<path class="st1" d="M90,0c0,27.6-40.3,50-90,50"/>
	<path class="st1" d="M70,0c0,27.6-31.3,50-70,50"/>
	<path class="st1" d="M50,0c0,27.6-22.4,50-50,50"/>
	<path class="st1" d="M30,0c0,27.6-13.4,50-30,50"/>
	<path class="st1" d="M10,0c0,27.6-4.5,50-10,50"/>
	<path class="st1" d="M10,0c0,27.6-4.5,50-10,50"/>
	<path class="st1" d="M30,0c0,27.6-13.4,50-30,50"/>
	<path class="st1" d="M50,0c0,27.6-22.4,50-50,50"/>
	<path class="st1" d="M70,0c0,27.6-31.3,50-70,50"/>
	<path class="st1" d="M90,0c0,27.6-40.3,50-90,50"/>
	<path class="st1" d="M110,0c0,27.6-49.2,50-110,50"/>
	<path class="st1" d="M130,0c0,27.6-58.2,50-130,50"/>
	<path class="st1" d="M150,0c0,16.6-67.2,30-150,30"/>
	<path class="st1" d="M130,0c0,16.6-58.2,30-130,30"/>
	<path class="st1" d="M110,0c0,16.6-49.2,30-110,30"/>
	<path class="st1" d="M90,0c0,16.6-40.3,30-90,30"/>
	<path class="st1" d="M70,0c0,16.6-31.3,30-70,30"/>
	<path class="st1" d="M50,0c0,16.6-22.4,30-50,30"/>
	<path class="st1" d="M30,0c0,16.6-13.4,30-30,30"/>
	<path class="st1" d="M10,0c0,16.6-4.5,30-10,30"/>
	<path class="st1" d="M10,0c0,16.6-4.5,30-10,30"/>
	<path class="st1" d="M30,0c0,16.6-13.4,30-30,30"/>
	<path class="st1" d="M50,0c0,16.6-22.4,30-50,30"/>
	<path class="st1" d="M70,0c0,16.6-31.3,30-70,30"/>
	<path class="st1" d="M90,0c0,16.6-40.3,30-90,30"/>
	<path class="st1" d="M110,0c0,16.6-49.2,30-110,30"/>
	<path class="st1" d="M130,0c0,16.6-58.2,30-130,30"/>
	<path class="st1" d="M150,0c0,5.5-67.2,10-150,10"/>
	<path class="st1" d="M130,0c0,5.5-58.2,10-130,10"/>
	<path class="st1" d="M110,0c0,5.5-49.2,10-110,10"/>
	<path class="st1" d="M90,0c0,5.5-40.3,10-90,10"/>
	<path class="st1" d="M70,0c0,5.5-31.3,10-70,10"/>
	<path class="st1" d="M50,0c0,5.5-22.4,10-50,10"/>
	<path class="st1" d="M30,0c0,5.5-13.4,10-30,10"/>
	<path class="st1" d="M10,0c0,5.5-4.5,10-10,10"/>
	<path class="st1" d="M10,0c0,5.5-4.5,10-10,10"/>
	<path class="st1" d="M30,0c0,5.5-13.4,10-30,10"/>
	<path class="st1" d="M50,0c0,5.5-22.4,10-50,10"/>
	<path class="st1" d="M70,0c0,5.5-31.3,10-70,10"/>
	<path class="st1" d="M90,0c0,5.5-40.3,10-90,10"/>
	<path class="st1" d="M110,0c0,5.5-49.2,10-110,10"/>
	<path class="st1" d="M130,0c0,5.5-58.2,10-130,10"/>
	<path class="st1" d="M150,0c0,5.5-67.2,10-150,10"/>
	<path class="st1" d="M130,0c0,5.5-58.2,10-130,10"/>
	<path class="st1" d="M110,0c0,5.5-49.2,10-110,10"/>
	<path class="st1" d="M90,0c0,5.5-40.3,10-90,10"/>
	<path class="st1" d="M70,0c0,5.5-31.3,10-70,10"/>
	<path class="st1" d="M50,0c0,5.5-22.4,10-50,10"/>
	<path class="st1" d="M30,0c0,5.5-13.4,10-30,10"/>
	<path class="st1" d="M10,0c0,5.5-4.5,10-10,10"/>
	<path class="st1" d="M10,0c0,5.5-4.5,10-10,10"/>
	<path class="st1" d="M30,0c0,5.5-13.4,10-30,10"/>
	<path class="st1" d="M50,0c0,5.5-22.4,10-50,10"/>
	<path class="st1" d="M70,0c0,5.5-31.3,10-70,10"/>
	<path class="st1" d="M90,0c0,5.5-40.3,10-90,10"/>
	<path class="st1" d="M110,0c0,5.5-49.2,10-110,10"/>
	<path class="st1" d="M130,0c0,5.5-58.2,10-130,10"/>
	<path class="st1" d="M150,0c0,16.6-67.2,30-150,30"/>
	<path class="st1" d="M130,0c0,16.6-58.2,30-130,30"/>
	<path class="st1" d="M110,0c0,16.6-49.2,30-110,30"/>
	<path class="st1" d="M90,0c0,16.6-40.3,30-90,30"/>
	<path class="st1" d="M70,0c0,16.6-31.3,30-70,30"/>
	<path class="st1" d="M50,0c0,16.6-22.4,30-50,30"/>
	<path class="st1" d="M30,0c0,16.6-13.4,30-30,30"/>
	<path class="st1" d="M10,0c0,16.6-4.5,30-10,30"/>
	<path class="st1" d="M10,0c0,16.6-4.5,30-10,30"/>
	<path class="st1" d="M30,0c0,16.6-13.4,30-30,30"/>
	<path class="st1" d="M50,0c0,16.6-22.4,30-50,30"/>
	<path class="st1" d="M70,0c0,16.6-31.3,30-70,30"/>
	<path class="st1" d="M90,0c0,16.6-40.3,30-90,30"/>
	<path class="st1" d="M110,0c0,16.6-49.2,30-110,30"/>
	<path class="st1" d="M130,0c0,16.6-58.2,30-130,30"/>
	<path class="st1" d="M150,0c0,27.6-67.2,50-150,50"/>
	<path class="st1" d="M130,0c0,27.6-58.2,50-130,50"/>
	<path class="st1" d="M110,0c0,27.6-49.2,50-110,50"/>
	<path class="st1" d="M90,0c0,27.6-40.3,50-90,50"/>
	<path class="st1" d="M70,0c0,27.6-31.3,50-70,50"/>
	<path class="st1" d="M50,0c0,27.6-22.4,50-50,50"/>
	<path class="st1" d="M30,0c0,27.6-13.4,50-30,50"/>
	<path class="st1" d="M10,0c0,27.6-4.5,50-10,50"/>
	<path class="st1" d="M10,0c0,27.6-4.5,50-10,50"/>
	<path class="st1" d="M30,0c0,27.6-13.4,50-30,50"/>
	<path class="st1" d="M50,0c0,27.6-22.4,50-50,50"/>
	<path class="st1" d="M70,0c0,27.6-31.3,50-70,50"/>
	<path class="st1" d="M90,0c0,27.6-40.3,50-90,50"/>
	<path class="st1" d="M110,0c0,27.6-49.2,50-110,50"/>
	<path class="st1" d="M130,0c0,27.6-58.2,50-130,50"/>
	<path class="st1" d="M150,0c0,38.7-67.2,70-150,70"/>
	<path class="st1" d="M130,0c0,38.7-58.2,70-130,70"/>
	<path class="st1" d="M110,0c0,38.7-49.2,70-110,70"/>
	<path class="st1" d="M90,0c0,38.7-40.3,70-90,70"/>
	<path class="st1" d="M70,0c0,38.7-31.3,70-70,70"/>
	<path class="st1" d="M50,0c0,38.7-22.4,70-50,70"/>
	<path class="st1" d="M30,0c0,38.7-13.4,70-30,70"/>
	<path class="st1" d="M10,0c0,38.7-4.5,70-10,70"/>
	<path class="st1" d="M10,0c0,38.7-4.5,70-10,70"/>
	<path class="st1" d="M30,0c0,38.7-13.4,70-30,70"/>
	<path class="st1" d="M50,0c0,38.7-22.4,70-50,70"/>
	<path class="st1" d="M70,0c0,38.7-31.3,70-70,70"/>
	<path class="st1" d="M90,0c0,38.7-40.3,70-90,70"/>
	<path class="st1" d="M110,0c0,38.7-49.2,70-110,70"/>
	<path class="st1" d="M130,0c0,38.7-58.2,70-130,70"/>
	<path class="st1" d="M150,0c0,49.7-67.2,90-150,90"/>
	<path class="st1" d="M130,0c0,49.7-58.2,90-130,90"/>
	<path class="st1" d="M110,0c0,49.7-49.2,90-110,90"/>
	<path class="st1" d="M90,0c0,49.7-40.3,90-90,90"/>
	<path class="st1" d="M70,0c0,49.7-31.3,90-70,90"/>
	<path class="st1" d="M50,0c0,49.7-22.4,90-50,90"/>
	<path class="st1" d="M30,0c0,49.7-13.4,90-30,90"/>
	<path class="st1" d="M10,0c0,49.7-4.5,90-10,90"/>
	<path class="st1" d="M10,0c0,49.7-4.5,90-10,90"/>
	<path class="st1" d="M30,0c0,49.7-13.4,90-30,90"/>
	<path class="st1" d="M50,0c0,49.7-22.4,90-50,90"/>
	<path class="st1" d="M70,0c0,49.7-31.3,90-70,90"/>
	<path class="st1" d="M90,0c0,49.7-40.3,90-90,90"/>
	<path class="st1" d="M110,0c0,49.7-49.2,90-110,90"/>
	<path class="st1" d="M130,0c0,49.7-58.2,90-130,90"/>
	<path class="st1" d="M150,0c0,60.8-67.2,110-150,110"/>
	<path class="st1" d="M130,0c0,60.8-58.2,110-130,110"/>
	<path class="st1" d="M110,0c0,60.8-49.2,110-110,110"/>
	<path class="st1" d="M90,0c0,60.8-40.3,110-90,110"/>
	<path class="st1" d="M70,0c0,60.8-31.3,110-70,110"/>
	<path class="st1" d="M50,0c0,60.8-22.4,110-50,110"/>
	<path class="st1" d="M30,0c0,60.8-13.4,110-30,110"/>
	<path class="st1" d="M10,0c0,60.8-4.5,110-10,110"/>
	<path class="st1" d="M10,0c0,60.8-4.5,110-10,110"/>
	<path class="st1" d="M30,0c0,60.8-13.4,110-30,110"/>
	<path class="st1" d="M50,0c0,60.8-22.4,110-50,110"/>
	<path class="st1" d="M70,0c0,60.8-31.3,110-70,110"/>
	<path class="st1" d="M90,0c0,60.8-40.3,110-90,110"/>
	<path class="st1" d="M110,0c0,60.8-49.2,110-110,110"/>
	<path class="st1" d="M130,0c0,60.8-58.2,110-130,110"/>
	<path class="st1" d="M150,0c0,71.8-67.2,130-150,130"/>
	<path class="st1" d="M130,0c0,71.8-58.2,130-130,130"/>
	<path class="st1" d="M110,0c0,71.8-49.2,130-110,130"/>
	<path class="st1" d="M90,0c0,71.8-40.3,130-90,130"/>
	<path class="st1" d="M70,0c0,71.8-31.3,130-70,130"/>
	<path class="st1" d="M50,0c0,71.8-22.4,130-50,130"/>
	<path class="st1" d="M30,0c0,71.8-13.4,130-30,130"/>
	<path class="st1" d="M10,0c0,71.8-4.5,130-10,130"/>
	<path class="st1" d="M10,0c0,71.8-4.5,130-10,130"/>
	<path class="st1" d="M30,0c0,71.8-13.4,130-30,130"/>
	<path class="st1" d="M50,0c0,71.8-22.4,130-50,130"/>
	<path class="st1" d="M70,0c0,71.8-31.3,130-70,130"/>
	<path class="st1" d="M90,0c0,71.8-40.3,130-90,130"/>
	<path class="st1" d="M110,0c0,71.8-49.2,130-110,130"/>
	<path class="st1" d="M130,0c0,71.8-58.2,130-130,130"/>
</g>
</svg>
