<?xml version="1.0" encoding="utf-8"?>
<!-- Generator: Adobe Illustrator 24.2.0, SVG Export Plug-In . SVG Version: 6.00 Build 0)  -->
<svg version="1.1" id="Layer_1" xmlns="http://www.w3.org/2000/svg" xmlns:xlink="http://www.w3.org/1999/xlink" x="0px" y="0px"
	 viewBox="0 0 792 612" style="enable-background:new 0 0 792 612;" xml:space="preserve">
<style type="text/css">
	.st0{fill:none;stroke:#000000;}
</style>
<g id="oL2iBB.tif">
	<g>
		<path d="M106.3,404.3c0.9-1.6,2-3.1,2.9-4.8c1.7-3.4,2.6-7,3.3-10.8c0.6-3.5,0.5-6.9,0.3-10.4c-0.1-2.1-0.3-4.2-0.5-6.4
			c-2,2.5-4.6,4.1-7.3,5.6c0.5-0.7,1-1.5,1.5-2.2c2.1-3.4,3.2-7.1,3.8-10.9c0.5-3.4,0.5-6.7,0.2-10.1c-0.4-4.2-0.7-8.4-1.4-12.6
			c-0.8-5.1-1.7-10.2-2.7-15.2c-2.7-13.2-5.6-26.3-8.4-39.5c-1.5-7-2.7-14-3.6-21.1c-0.7-5.6-1.3-11.3-1.1-17
			c0.3-8.3,1.5-16.4,4.8-24c2-4.6,4.7-8.7,8.6-11.9c3.5-2.9,7.6-4.6,12.1-5.1c5.8-0.5,11,1,15.9,4.1c0.1,0.1,0.2,0.1,0.3,0.2
			c-1-0.1-1.9-0.2-2.8-0.2c-5.3,0-9.2,2.3-12,6.8c-1.9,3-2.7,6.3-3,9.8c-0.5,6,0.4,11.8,1.9,17.6c1.8,7.4,4.4,14.5,7.4,21.5
			c3.4,8,6.9,16,10.2,24c4,9.7,7.1,19.7,9.1,30c0.9,4.7,1.6,9.5,2,14.3c0.3,4.3,0.5,8.5,0.3,12.8c-0.4,6.9-1.7,13.7-3.9,20.3
			c-2.9,8.5-7.2,16.2-13.4,22.7c-0.3,0.4-0.7,0.7-1.1,1c0.4-0.8,0.8-1.7,1.2-2.5c1.4-3.1,2.1-6.4,2-9.8c-0.1-2-0.4-4-0.5-6
			c-0.1-2-0.3-4.1-0.2-6.1c0-0.9,0.6-1.8,1-2.7c0.4-0.9,1.1-1.6,1.4-2.5c0.9-2.2,0.5-4.2-1-6c-1.8-2.2-4.1-3.6-7-3.7
			c-2.3-0.1-3.9,1.7-3.5,4c0.2,1.2,0.4,2.3,0.7,3.5c1.4,4.4,2.2,9,2.1,13.6c-0.1,5.6-1.2,10.9-4.2,15.8c-2,3.2-4.5,6-7.3,8.5
			C111.7,400.9,109.1,402.8,106.3,404.3z M116.6,214.6C116.6,214.6,116.6,214.6,116.6,214.6c-0.5,0.3-0.7,0.8-0.4,1.4
			c0.3,0.6,0.9,0.9,1.5,0.7c0.6-0.2,0.9-0.6,0.9-1.2c0-0.6-0.2-1.1-0.8-1.3C117.4,214.1,116.9,214.1,116.6,214.6z M111.9,340.9
			c0.4,3.3,0.8,6.5,1.1,9.7c0.3,3.2,0.4,6.4,0.5,9.7c0.1-0.3,0.2-0.6,0.3-0.8c0.8-1.6,1.5-3.3,2.3-4.9c1.3-2.4,3-4.3,5.4-5.5
			c3-1.6,6.2-1.6,9.4-0.9c5.5,1.3,9.7,4.5,12.6,9.4c0.1,0.1,0.2,0.3,0.3,0.5c0.1-0.3,0.1-0.4,0.1-0.6c0.7-3.4,1.1-6.9,1.1-10.4
			c0-1.6,0-3.1,0.1-4.7c0-0.5-0.2-0.7-0.7-0.5c-1,0.2-2.1,0.4-3.2,0.5c-2.9,0.3-5.8,0.2-8.5-0.8c-0.5-0.2-1.1-0.5-1.5-0.8
			c-0.6-0.4-0.6-1.1,0-1.5c0.5-0.3,1.2-0.6,1.8-0.7c2.9-0.6,5.9-0.3,8.8,0.1c1,0.1,2.1,0.4,3.2,0.6c-0.4-4.7-0.9-9.4-1.7-14
			c-0.2,0.1-0.2,0.1-0.2,0.2c-0.1,0.1-0.2,0.2-0.2,0.4c-1.4,2.7-3.7,4.4-6.5,5.4c-3.2,1.2-6.5,1.7-10,1.2c-2-0.3-4-0.5-6-1
			c-3.6-0.9-6.9-2.4-9.7-4.9c-0.7-0.6-1.3-1.3-2.1-2.1c0.9,4.8,1.8,9.4,2.6,14c0.5-0.1,0.9-0.2,1.4-0.3c3.1-0.6,6.2-0.4,9.2,0.1
			c0.9,0.1,1.8,0.5,2.6,0.9c0.3,0.2,0.7,0.6,0.7,1c0,0.3-0.4,0.8-0.8,0.9c-1.1,0.3-2.1,0.7-3.2,0.8
			C118.2,342.1,115.1,341.9,111.9,340.9z M121.3,287.4c0-0.1,0.1-0.2,0.1-0.2c0.3,0,0.5,0,0.8,0c2.6-0.1,5-1,7.1-2.6
			c1.1-0.8,1.1-0.8,0.5-2.1c-0.5-1.2-1.1-2.5-1.6-3.6c-0.9,0.1-1.8,0.3-2.6,0.4c-2.2,0.1-4.1-0.6-6.1-1.4c-2-0.8-4.1-1.7-6.2-2.3
			c-5-1.3-9.5-0.1-13.7,2.8c-0.4,0.2-0.4,0.5-0.3,0.9c0.3,1.5,0.6,3,0.9,4.6c0.2,0.9,0.4,1.8,0.6,2.9c1.4-2.8,3.5-4.3,6.3-4.9
			c2.7-0.6,5.3-0.2,7.9,1.1c-2.5,0.3-4.9,2-5.4,3.6c3.1,0.4,5.9,1.6,8.2,4.1c-0.3,0-0.4-0.1-0.5-0.1c-2.6-0.4-5.2-0.6-7.8,0
			c-2.6,0.6-5,1.6-6.7,3.8c-0.3,0.4-0.4,0.7-0.3,1.2c0.6,2.9,1.3,5.8,1.9,8.7c0.2,1,0.4,1.9,0.6,2.9c0.2-0.2,0.3-0.4,0.3-0.5
			c1.8-5,5.4-8,10.5-9.1c2.6-0.6,5.3-0.6,8-0.4c4.8,0.4,9.2,1.9,13.1,4.6c0.1,0.1,0.2,0.1,0.5,0.2c-1.4-3.6-2.7-7-4-10.4
			c-0.5-1.3-0.5-1.3-1.8-1.1c-2.9,0.3-5.5-0.4-8.1-1.6C122.8,288.4,122.1,287.8,121.3,287.4z M98.9,277c0.3-0.2,0.5-0.4,0.7-0.5
			c1-0.7,2-1.4,3.1-2c4-2.1,8.3-2.3,12.7-1.5c3.9,0.7,7.5,2,11,3.8c0.3,0.2,0.7,0.3,1.1,0.5c-0.1-0.2-0.1-0.3-0.1-0.4
			c-1.2-2.9-2.5-5.7-3.7-8.6c-0.2-0.4-0.4-0.5-0.8-0.4c-1.4,0.2-2.9,0.4-4.3,0.4c-1.6,0-3.1-0.1-4.6-0.8c-0.5-0.2-1.2-0.4-1.1-1
			c0.1-0.4,0.7-0.7,1.1-0.9c2.1-0.8,4.3-0.9,6.5-0.7c0.6,0,1.2,0.2,1.9,0.3c-1.1-2.9-2.1-5.7-3.2-8.7c-0.7,1.2-1.6,1.9-2.6,2.5
			c-3.8,2.1-7.8,2.4-12,1.7c-3-0.6-5.6-1.9-7.9-4c-0.2-0.1-0.3-0.3-0.6-0.5c0.3,3,0.6,5.9,0.8,8.7c1.6,0,3.2-0.1,4.8,0
			c1.5,0.1,2.9,0.5,4.4,0.8c0.5,0.1,1.2,0.4,1.2,1.2c0,0.7-0.7,0.8-1.3,0.9c-2,0.5-4,0.7-6.1,0.5c-0.8-0.1-1.6-0.2-2.6-0.3
			C97.9,271.1,98.4,274,98.9,277z M123.2,314.5c-0.3,0-0.6,0-1,0c-2.8,0.1-5.5,0.5-8,2.1c-1.8,1.1-3,2.7-2.8,5c0.1,1.6,0.9,3,2,4.2
			c2.2,2.4,5.1,3.5,8.2,4.2c1.8,0.4,3.7,0.5,5.5,0.7c3.8,0.4,7.3-0.3,10.5-2.3c3.2-2,4.1-5,1.7-8.3c-1.2-1.7-3-2.8-4.9-3.5
			C130.9,315,127.1,314.6,123.2,314.5z M109.5,318.2c0.2,0,0.2,0,0.2,0c0.1-0.1,0.1-0.1,0.1-0.2c0.6-1.4,1.7-2.4,3-3.2
			c2.4-1.4,4.9-2,7.6-2.2c5.2-0.5,10.3,0.2,15.3,2.2c0.5,0.2,1,0.4,1.5,0.4c0.8,0.1,1.3-0.4,1.3-1.2c0-0.3,0-0.6-0.1-0.9
			c-0.5-1.2-1-2.5-1.7-3.5c-3-4.3-7.4-6.4-12.4-7.4c-0.1,0-0.2,0-0.3,0.1c0.6,0.4,1.3,0.7,1.8,1.2c0.6,0.6,1,1.3,1.4,2
			c0.3,0.6-0.1,1.1-0.8,1c-1.7-0.2-3.5-0.4-5.2-0.6c-0.6-0.1-1-0.3-1.3-0.8c-0.2-0.4-0.4-0.7-0.7-1.1c-0.9-1.2-2-2.1-3.5-2.4
			c-0.6-0.1-1.3-0.1-1.8-0.1c0.5,1.3,1,2.5,1.4,3.7c0.4,1.3,0.3,1.4-0.9,2c-3.4,1.7-5.5,5.5-5.2,9.3
			C109.3,317.1,109.4,317.6,109.5,318.2z M109.6,248c0,0.1-0.1,0.1-0.1,0.2c0.2,0.2,0.5,0.3,0.7,0.5c0.8,0.7,1.6,1.4,2.3,2.2
			c0.6,0.6,0.5,1.5,0.1,2.1c-0.4,0.6-1.3,0.9-2.1,0.5c-0.6-0.3-1.2-0.6-1.7-1.1c-1.2-1.1-2.2-2.4-3.4-3.6c-1.7-1.6-3.7-2.6-6-2.7
			c-1.3-0.1-2.3,0.5-2.9,1.7c-0.7,1.3-0.8,2.7-0.3,4.1c0.7,2,2.1,3.5,3.9,4.7c2.8,1.9,5.9,2.6,9.2,2.7c2.3,0.1,4.5-0.3,6.6-1.5
			c3.3-1.9,2.7-5.5,0.8-7.3C114.7,248.6,112.2,248.2,109.6,248z M108,235.9c0.5,0.6,1.1,1.1,1.6,1.8c0.5,0.7,0.9,1.6,1.2,2.4
			c0.3,1.1-0.6,1.8-1.7,1.5c-0.5-0.2-1.1-0.5-1.5-0.9c-1-0.9-1.9-2-2.8-2.9c-1.1-1.1-2.5-1.8-4.1-2.1c-1.6-0.3-2.8,0.2-3.3,1.6
			c-0.2,0.6-0.3,1.4-0.3,2c0.2,1.8,1.3,3.2,2.7,4.3c2.7,2.1,5.9,2.8,9.3,2.8c1.6,0,3.2-0.4,4.6-1.3c1.2-0.7,1.8-1.8,1.6-3.2
			c-0.1-0.7-0.3-1.5-0.7-2.1C113,237.4,110.6,236.5,108,235.9z M114.4,236.5c0-3.3,0-6.7,0-10.2c-2,0-4,0-6.1,0
			c0.9,0.5,1.7,1.2,2.1,2.1c0.6,1.1,0.2,2-1,2.2c-0.7,0.1-1.5,0.1-2.2,0.1c-2.5-0.2-4.8-1-7.1-1.8c-0.2-0.1-0.4-0.1-0.7-0.2
			c-0.5,1.8-1,3.5-1.5,5.3C103.7,233,109.3,233.4,114.4,236.5z M110.9,224.6c0.8,0,1.5,0,2.2,0c1.6,0,1.7,0,2.2-1.5
			c0.3-1,0.6-2,0.7-3c0.1-1.4-0.7-2.3-2-2.7c-1.6-0.4-2.9-0.1-4.1,1.1c-0.7,0.7-1.3,1.4-1.9,2.1c-0.3,0.3-0.7,0.6-1,0.8
			c-0.2,0.1-0.6,0.1-0.8-0.1c-0.2-0.1-0.2-0.5-0.2-0.7c0.1-0.3,0.2-0.7,0.4-0.9c0.6-0.6,1.2-1.2,1.8-1.7c0.1-0.1,0.2-0.2,0.4-0.3
			c-2.8-0.3-5.7,2.2-5.9,4.8c-0.1,1.5,0.9,2.6,2.4,2.7c1.1,0.1,2.1-0.3,2.9-0.9c0.9-0.7,1.7-1.4,2.5-2.1c0.4-0.3,0.8-0.7,1.2-0.9
			c0.6-0.3,1,0.1,0.9,0.7c-0.1,0.3-0.2,0.6-0.4,0.9C112,223.4,111.5,223.9,110.9,224.6z"/>
		<path d="M116.6,214.6C116.6,214.6,116.6,214.6,116.6,214.6c0.2-0.1,0.3-0.2,0.5-0.2c0.6-0.1,1,0,1.3,0.5c0.2,0.5,0.2,0.9-0.2,1.3
			c-0.4,0.4-0.9,0.4-1.4,0.1c-0.5-0.3-0.6-0.8-0.4-1.4C116.4,214.9,116.5,214.8,116.6,214.6z M116.7,215.9c0.5,0,0.9,0,1.3,0
			c0,0,0-0.1,0-0.1c-0.2-0.1-0.4-0.1-0.7-0.3c0.3-0.2,0.5-0.3,0.7-0.5c-0.3,0-0.5,0.1-0.7,0C116.6,215,116.6,215,116.7,215.9z"/>
		<path d="M126,320.2c2.4,0.2,4.9,0.5,7.3,0.8c0.7,0.1,1.4,0.4,2,0.8c0.8,0.5,0.8,1.5-0.1,2c-1.2,0.7-2.5,0.8-3.9,0.9
			c-3.5,0.2-7,0.2-10.5-0.4c-1.1-0.2-2.1-0.5-3.1-0.8c-0.1,0-0.2-0.1-0.3-0.1c-0.5-0.3-1.1-0.6-1-1.3c0-0.6,0.6-0.9,1.1-1
			c1.4-0.3,2.9-0.6,4.3-0.7c1.4-0.1,2.8,0,4.1,0C126,320.3,126,320.3,126,320.2z"/>
		<path d="M106.7,254.2c-2.5-0.1-4.8-0.7-6.7-2.4c-0.5-0.5-0.7-1.2-0.5-1.6c0.3-0.5,0.9-0.7,1.7-0.5c1.4,0.4,2.4,1.4,3.3,2.3
			C105.2,252.7,105.9,253.4,106.7,254.2z"/>
		<path d="M105.4,242c-1.5-0.1-3.2-0.4-4.6-1.5c-0.3-0.2-0.5-0.4-0.7-0.7c-0.4-0.6-0.1-1.4,0.7-1.4c0.5,0,1.1,0.2,1.5,0.4
			c0.7,0.4,1.3,1,1.8,1.5C104.6,240.9,105,241.6,105.4,242z"/>
	</g>
</g>
<g id="j7b80i.tif">
	<g>
		<path d="M384.3,449.3c0,0.8,0,1.5,0,2.1c0,0.2,0.3,0.4,0.5,0.5c1.3,0.4,1.3,0.4,1.3,1.8c0,0.4,0,0.9,0,1.4
			c-0.3-0.1-0.5-0.1-0.8-0.2c-0.2-0.1-0.5-0.1-0.8-0.2c-0.1,0.4-0.2,0.8-0.3,1.2c0,0-0.1,0-0.1,0c0-1,0-2,0-2.9c0-1.3,0.2-1-1.1-1.4
			c-0.2-0.1-0.4-0.1-0.6-0.1c0,0.9,0,1.7,0,2.6c-0.6-0.1-1-0.3-1.5-0.4c-0.1,0.4-0.2,0.7-0.3,1.1c0,0-0.1,0-0.1,0c0-0.8,0-1.7,0-2.5
			c0-1.6,0-1.6-1.7-1.8c0,0.8,0,1.6,0,2.5c-0.6-0.1-1-0.2-1.5-0.4c-0.1,0.4-0.2,0.7-0.3,1c0,0,0,0-0.1,0c0-1.3,0-2.6,0-3.9
			c0.6,0.2,1.1,0.3,1.8,0.5c0-0.8,0.1-1.6-0.1-2.2c-0.1-0.3-0.8-0.5-1.3-0.7c-0.1,0.5-0.2,0.8-0.3,1.1c0,0-0.1,0-0.1,0
			c0-1,0-1.9,0-2.9c0-0.6-0.2-0.9-0.7-1.2c-4.3-2.2-6.7-6.7-6.1-11.3c0.6-4.8,4-8.6,8.7-9.7c0.1,0,0.2,0,0.3,0
			c0.2,1,0.1,1.1-0.8,1.5c-3.7,1.3-6.1,3.9-6.8,7.8c-0.7,4,0.7,7.3,3.9,9.8c0.3,0.3,0.7,0.5,1,0.7c0,0,0,0-0.1,0
			c0.2-2.5,0.4-4.9,0.6-7.4c0-0.5,0.1-1,0.2-1.5c0.1-0.4,0.1-0.9,0.8-0.8c0.2,0,0.5-0.6,0.5-0.9c0.1-1.2,0.1-2.3,0.2-3.5
			c0.1-0.7,0.3-1.4,0.4-2.2c0.2-1,0.3-2,0.6-2.9c0.1-0.6,0.4-1.2,0.6-1.8c0-0.1,0.3-0.2,0.4-0.2c0.8,0,1.7,0,2.5,0
			c0.2,0,0.5,0.3,0.6,0.5c0.2,0.7,0.7,0.8,1.3,1.1c4,1.4,6.7,4.2,7.6,8.4c1.3,5.6-1.9,11.3-7.4,13.1c-0.8,0.3-1,0.7-0.7,1.4
			c0.1,0.2,0.4,0.4,0.6,0.4c1.1,0.4,1.1,0.4,1.1,1.6c0,0.5,0,1,0,1.6c-0.4-0.1-0.7-0.2-0.9-0.3C385,449.5,384.7,449.4,384.3,449.3z
			 M385,443.6c4.9-1.9,7.1-7,6.4-11c-0.5-3.2-2.2-5.5-5-7.3c0,1.4,0,2.6,0,3.8c0,0-0.1,0-0.1,0c-0.1-1.3-0.2-2.6-0.3-3.8
			c-0.1,0-0.1,0-0.2,0c0,2.9,0,5.7,0,8.6c0,0-0.1,0-0.1,0c-0.1-2-0.3-4-0.4-6c-0.6,0.4-1,0.7-1.5,1.1c1.2,0.5,1.2,0.5,1.2,2
			c0,3.1,0,6.2,0,9.3c0,2,0.2,2-1.9,2.4C383.7,442.9,384.3,443.2,385,443.6z M380.1,433.4c-0.3,1.2,0,2.1,1.1,2.5
			c0.4,0.1,0.5,0.4,0.4,0.8c0,0.9,0,1.8,0,2.7c0.9,0,1.1-0.4,1.1-1.1c-0.1-0.5,0-1.1,0-1.7c0.5,0.1,0.8,0.2,1.2,0.3
			c0-0.7,0-1.3,0-1.9c0-0.5-0.1-0.7-0.6-0.8c-0.5-0.1-0.6-0.4-0.5-0.9c0-0.8,0.1-1.7,0-2.5c0-0.2-0.2-0.5-0.3-0.6
			c-0.5-0.2-1-0.4-1.6-0.6c-0.1,0.7-0.4,1.4,0.6,1.6c0.1,0,0.3,0.2,0.3,0.4c0,0.8,0,1.6,0,2.5C381,433.7,380.6,433.6,380.1,433.4z
			 M383,428.6c1.3,0,2.2-0.9,2.2-2.1c0-1.2-0.9-2.1-2.1-2.1c-1.3,0-2.2,0.9-2.2,2.1C380.8,427.6,381.7,428.5,383,428.6z
			 M382.5,446.1c0,0.5,0,0.8,0,1.1c0,1.6,0,1.6,1.5,1.9c0,0,0.1,0,0.2,0c0-0.7,0-1.4,0-2.1c0-0.1-0.1-0.3-0.3-0.4
			C383.5,446.4,383.1,446.3,382.5,446.1z M380.7,448.3c-0.3,2.2,0.2,3,1.6,2.7C382.6,448.7,382.4,448.4,380.7,448.3z M380.6,448
			c0-0.7,0-1.4,0-2.1c0-0.1-0.2-0.4-0.3-0.4c-0.4-0.1-0.9-0.2-1.3-0.3C378.5,447.3,378.8,447.7,380.6,448z M383.9,443.9
			c-1.1-0.9-2.5-0.7-2.9,0.2c0.4-0.2,0.9-0.5,1.5-0.5C382.9,443.6,383.4,443.8,383.9,443.9z"/>
		<path d="M380.3,433.7c0.7,0.2,1.4,0.5,2,0.7c0.2,0.1,0.4,0.1,0.5,0c0.6-0.5,0.7-0.1,0.7,0.3c0,0.5,0,1,0,1.6
			c-0.8-0.6-1.5-1-2.3-1.6c-0.1,0.4-0.1,0.5-0.2,0.7C380.4,435.3,380.1,434.8,380.3,433.7z"/>
		<path d="M383.3,424.4c-0.4,1.4-0.6,1.4-1.6,0.5C382.2,424.8,382.7,424.6,383.3,424.4z"/>
		<path d="M384,424.8c0.3,0.4,0.5,0.7,0.8,1.1c0,0.1-0.1,0.1-0.1,0.2c-0.3-0.1-0.8,0-1-0.2c-0.2-0.2,0-0.7,0-1
			C383.8,424.8,383.9,424.8,384,424.8z"/>
		<path d="M381.2,427.1c0-0.5,0-0.9,0-1.4c0.1,0,0.1-0.1,0.2-0.1c0.2,0.3,0.6,0.5,0.6,0.8c0,0.2-0.4,0.5-0.6,0.8
			C381.4,427.1,381.3,427.1,381.2,427.1z"/>
		<path d="M382.8,427.1c0.2,0.4,0.3,0.7,0.5,1.2c-0.6-0.2-1-0.3-1.4-0.4c0-0.1,0-0.1,0-0.2C382.1,427.5,382.4,427.4,382.8,427.1z"/>
		<path d="M383.8,427.9c0-0.3-0.2-0.8-0.1-0.9c0.2-0.2,0.6-0.2,0.9-0.3c0,0.1,0.1,0.1,0.1,0.2c-0.2,0.4-0.5,0.7-0.7,1.1
			C384,427.9,383.9,427.9,383.8,427.9z"/>
	</g>
</g>
<g>
	<path class="st0" d="M379.6,217h-7.5v-1.7h6.7v-2.5h0.8V217z"/>
	<path class="st0" d="M379.6,211.1h-7.5V207h0.8v2.5h2.5v-1.7h0.8v1.7h2.5V207h0.8V211.1z"/>
	<path class="st0" d="M375.4,202.8v-2.5h2.5c0.6,0,1,0.2,1.2,0.5c0.3,0.4,0.4,0.7,0.4,1.1v1.7c0,0.5-0.2,0.8-0.5,1.2
		c-0.3,0.3-0.7,0.5-1.2,0.5h-4.2c-0.4,0-0.8-0.2-1.2-0.5c-0.3-0.3-0.5-0.7-0.5-1.2V202c0-1,0.6-1.6,1.7-1.7v0.8
		c-0.6,0.1-0.8,0.3-0.8,0.8v0.8c0,0.2,0.1,0.4,0.2,0.6c0.2,0.2,0.4,0.2,0.6,0.2h4.2c0.2,0,0.4-0.1,0.6-0.2c0.2-0.2,0.2-0.4,0.2-0.6
		c0-0.5-0.3-0.8-0.8-0.8h-1.7v0.8H375.4z"/>
	<path class="st0" d="M379.6,198.7h-7.5v-4.2h0.8v2.5h2.5v-1.7h0.8v1.7h2.5v-2.5h0.8V198.7z"/>
	<path class="st0" d="M379.6,192.9h-7.5v-0.4l4.2-4.6h-4.2V187h7.5v0.4l-4.2,4.6h4.2V192.9z"/>
	<path class="st0" d="M379.6,185.4h-7.5V182c0-0.5,0.2-0.8,0.5-1.2c0.3-0.3,0.7-0.5,1.2-0.5h4.2c0.4,0,0.8,0.2,1.2,0.5
		c0.3,0.3,0.5,0.7,0.5,1.2V185.4z M378.7,183.7v-0.8c0-0.2-0.1-0.4-0.2-0.6c-0.2-0.2-0.4-0.2-0.6-0.2h-4.2c-0.2,0-0.4,0.1-0.6,0.2
		c-0.2,0.2-0.2,0.4-0.2,0.6v0.8H378.7z"/>
	<path class="st0" d="M373.8,174.6v0.8c-0.6,0.1-0.8,0.3-0.8,0.8c0,0.3,0.1,0.5,0.2,0.7c0.1,0.1,0.3,0.2,0.6,0.2
		c0.2,0,0.4-0.1,0.6-0.2l2-1.8c0.4-0.3,0.8-0.5,1.2-0.5h0.4c0.4,0,0.8,0.2,1.2,0.5c0.3,0.3,0.5,0.7,0.5,1.2v0.8c0,0.6-0.1,1-0.4,1.2
		c-0.3,0.3-0.7,0.4-1.2,0.4v-0.8c0.1,0,0.1,0,0.1,0c0.2,0,0.4-0.1,0.5-0.3c0.1-0.2,0.2-0.4,0.2-0.6c0-0.3-0.1-0.5-0.2-0.6
		c-0.1-0.1-0.4-0.2-0.6-0.2c-0.2,0-0.4,0.1-0.6,0.2l-2,1.8c-0.4,0.3-0.8,0.5-1.2,0.5h-0.4c-0.5,0-0.8-0.2-1.2-0.5
		c-0.3-0.3-0.5-0.7-0.5-1.2v-0.8C372.1,175.2,372.6,174.6,373.8,174.6z"/>
	<path class="st0" d="M372.1,168.8v-1.7c0-0.5,0.2-0.8,0.5-1.2c0.3-0.3,0.7-0.5,1.2-0.5h4.2c0.4,0,0.8,0.2,1.2,0.5
		c0.3,0.3,0.5,0.7,0.5,1.2v1.7c0,0.5-0.2,0.8-0.5,1.2c-0.3,0.3-0.7,0.5-1.2,0.5h-4.2c-0.5,0-0.8-0.2-1.2-0.5
		C372.3,169.6,372.1,169.3,372.1,168.8z M373.8,168.8h4.2c0.2,0,0.4-0.1,0.6-0.2s0.2-0.4,0.2-0.6c0-0.2-0.1-0.4-0.2-0.6
		c-0.2-0.2-0.4-0.2-0.6-0.2h-4.2c-0.2,0-0.4,0.1-0.6,0.2c-0.2,0.2-0.2,0.4-0.2,0.6c0,0.2,0.1,0.4,0.2,0.6
		C373.3,168.7,373.5,168.8,373.8,168.8z"/>
	<path class="st0" d="M379.6,163.8h-7.5v-4.2h0.8v2.5h2.5v-1.7h0.8v1.7h3.3V163.8z"/>
	<path class="st0" d="M385.7,198.7v0.8c-0.6,0.1-0.8,0.3-0.8,0.8c0,0.3,0.1,0.5,0.2,0.7c0.1,0.1,0.3,0.2,0.6,0.2
		c0.2,0,0.4-0.1,0.6-0.2l2-1.8c0.4-0.3,0.8-0.5,1.2-0.5h0.4c0.4,0,0.8,0.2,1.2,0.5c0.3,0.3,0.5,0.7,0.5,1.2v0.8c0,0.6-0.1,1-0.4,1.2
		c-0.3,0.3-0.7,0.4-1.2,0.4V202c0.1,0,0.1,0,0.1,0c0.2,0,0.4-0.1,0.5-0.3c0.1-0.2,0.2-0.4,0.2-0.6c0-0.3-0.1-0.5-0.2-0.6
		c-0.1-0.1-0.4-0.2-0.6-0.2c-0.2,0-0.4,0.1-0.6,0.2l-2,1.8c-0.4,0.3-0.8,0.5-1.2,0.5h-0.4c-0.5,0-0.8-0.2-1.2-0.5
		c-0.3-0.3-0.5-0.7-0.5-1.2v-0.8C384.1,199.3,384.6,198.8,385.7,198.7z"/>
	<path class="st0" d="M391.5,197h-7.5v-3.3c0-0.5,0.2-0.8,0.5-1.2c0.3-0.3,0.7-0.5,1.2-0.5h0.8c0.5,0,0.8,0.2,1.2,0.5
		c0.3,0.3,0.5,0.7,0.5,1.2v1.7h3.3V197z M387.4,195.4v-0.8c0-0.2-0.1-0.4-0.2-0.6c-0.2-0.2-0.4-0.2-0.6-0.2h-0.8
		c-0.2,0-0.4,0.1-0.6,0.2c-0.2,0.2-0.2,0.4-0.2,0.6v0.8H387.4z"/>
	<path class="st0" d="M391.5,190.4h-7.5v-4.2h0.8v2.5h2.5v-1.7h0.8v1.7h2.5v-2.5h0.8V190.4z"/>
	<path class="st0" d="M391.5,184.6h-7.5v-4.2h0.8v2.5h2.5v-1.7h0.8v1.7h2.5v-2.5h0.8V184.6z"/>
	<path class="st0" d="M391.5,178.7h-7.5v-3.3c0-0.5,0.2-0.8,0.5-1.2c0.3-0.3,0.7-0.5,1.2-0.5h4.2c0.4,0,0.8,0.2,1.2,0.5
		c0.3,0.3,0.5,0.7,0.5,1.2V178.7z M390.7,177.1v-0.8c0-0.2-0.1-0.4-0.2-0.6c-0.2-0.2-0.4-0.2-0.6-0.2h-4.2c-0.2,0-0.4,0.1-0.6,0.2
		c-0.2,0.2-0.2,0.4-0.2,0.6v0.8H390.7z"/>
</g>
<g id="j7b80i.tif_1_">
	<g>
		<path d="M650.6,269c0-2.9,0.1-5.2-0.1-7.6c-0.1-0.7-1.1-1.6-1.9-1.8c-4.4-1.6-4.5-1.5-4.5-6.2c0-1.5,0-3,0-4.9
			c1.1,0.2,1.9,0.4,2.7,0.6c0.8,0.2,1.6,0.4,2.6,0.7c0.4-1.5,0.8-2.9,1.2-4.3c0.1,0,0.2,0,0.4,0c0,3.5,0,6.9,0,10.4
			c0.1,4.5-0.7,3.7,3.9,5.1c0.6,0.2,1.3,0.3,2.3,0.5c0-3.1,0-5.9,0-9.1c2,0.5,3.6,0.9,5.3,1.3c0.4-1.4,0.7-2.6,1-3.8
			c0.2,0,0.3,0,0.5,0c0,2.9,0,5.9,0,8.8c0,5.6,0,5.6,6.1,6.5c0-2.8,0-5.6,0-8.8c2,0.5,3.6,0.9,5.5,1.3c0.4-1.3,0.7-2.5,1.1-3.7
			c0.1,0,0.2,0,0.2,0.1c0,4.5,0,9.1,0,13.9c-2.1-0.5-3.9-1-6.3-1.6c0,2.8-0.5,5.5,0.2,7.9c0.3,1.1,2.8,1.6,4.6,2.6
			c0.5-1.7,0.8-2.8,1.2-4c0.2,0,0.3,0,0.5,0c0,3.4,0.1,6.8,0,10.3c-0.1,2,0.5,3.1,2.4,4.1c15.1,7.6,23.7,23.6,21.7,40
			c-2.1,16.8-14.2,30.4-30.7,34.3c-0.3,0.1-0.7,0.1-1,0.1c-0.7-3.6-0.3-4,2.9-5.2c13.1-4.7,21.5-13.8,23.9-27.5
			c2.5-14.1-2.5-25.8-13.7-34.7c-1.1-0.9-2.3-1.7-3.5-2.5c-0.1,0-0.2,0,0.3,0c-0.7,8.8-1.3,17.5-2,26.2c-0.1,1.8-0.2,3.6-0.7,5.3
			c-0.3,1.4-0.5,3.1-2.9,2.9c-0.6,0-1.7,2-1.8,3.1c-0.4,4.1-0.2,8.2-0.6,12.2c-0.2,2.6-0.9,5.1-1.4,7.6c-0.7,3.5-1.2,7-2,10.4
			c-0.5,2.2-1.3,4.3-2.2,6.4c-0.1,0.4-1,0.6-1.5,0.6c-2.9,0-5.9,0.1-8.8-0.1c-0.8-0.1-1.9-1.1-2.1-1.9c-0.8-2.4-2.6-3-4.7-3.7
			c-14.2-5-23.6-14.7-27-29.5c-4.5-19.8,6.8-39.8,26.1-46.3c2.7-0.9,3.6-2.4,2.6-5.1c-0.2-0.7-1.4-1.3-2.3-1.6c-4-1.3-4-1.3-4-5.5
			c0-1.8,0-3.5,0-5.6c1.4,0.4,2.3,0.7,3.3,0.9C648.4,268.4,649.3,268.6,650.6,269z M648.3,289.2c-17.3,6.7-25.1,24.6-22.7,38.8
			c1.9,11.2,7.8,19.6,17.8,25.8c0-4.8,0-9,0-13.3c0.1,0,0.2,0,0.3,0c0.3,4.5,0.7,9,1,13.6c0.2,0,0.5,0,0.7-0.1c0-10.1,0-20.2,0-30.4
			c0.1,0,0.2,0,0.4,0c0.5,7,1,14,1.6,21.2c2-1.4,3.7-2.6,5.3-3.8c-4.3-1.8-4.3-1.8-4.3-7c0-10.9,0-21.8,0-32.7c0-7-0.8-7,6.7-8.6
			C653,291.6,650.9,290.5,648.3,289.2z M665.7,325.2c1.2-4.4,0-7.5-3.7-8.7c-1.6-0.5-1.6-1.4-1.6-2.7c0-3.2,0-6.3,0-9.5
			c-3,0-4,1.3-3.7,4c0.2,1.9,0,3.8,0,6c-1.6-0.4-2.7-0.6-4.2-1c0,2.4,0.1,4.5,0,6.6c-0.1,1.6,0.4,2.6,2,3c1.7,0.4,2,1.5,1.9,3.1
			c-0.2,3-0.2,6-0.1,8.9c0,0.8,0.5,1.9,1.2,2.2c1.7,0.9,3.6,1.4,5.6,2.1c0.2-2.5,1.3-4.8-2-5.8c-0.4-0.1-0.9-0.8-1-1.3
			c-0.1-2.8,0-5.7,0-8.9C662.4,324.1,664,324.7,665.7,325.2z M655.6,342.3c-4.4,0-7.7,3.1-7.7,7.3c0,4.4,3.1,7.5,7.5,7.6
			c4.4,0,7.6-3,7.7-7.4C663.2,345.6,659.9,342.4,655.6,342.3z M657.2,280.5c0-1.7,0-2.8,0-3.9c0-5.6,0-5.6-5.4-6.7
			c-0.2,0-0.3,0.1-0.8,0.1c0,2.5,0,5,0,7.5c0,0.5,0.5,1.1,0.9,1.3C653.5,279.4,655.2,279.9,657.2,280.5z M663.5,272.5
			c1.1-7.8-0.6-10.6-5.8-9.7C656.9,271.1,657.6,272.1,663.5,272.5z M664,273.9c0,2.6-0.1,5.1,0.1,7.5c0,0.5,0.6,1.3,1.1,1.4
			c1.5,0.4,3.1,0.6,4.6,0.9C671.3,276.3,670.4,274.6,664,273.9z M652.1,288.1c3.8,3.1,8.9,2.4,10.3-0.6c-1.6,0.6-3.3,1.6-5.2,1.8
			C655.6,289.4,653.9,288.5,652.1,288.1z"/>
		<path d="M665,324c-2.4-0.9-4.8-1.7-7.2-2.5c-0.6-0.2-1.5-0.4-1.8-0.1c-2,1.8-2.4,0.4-2.5-1.2c-0.1-1.8,0-3.5,0-5.7
			c2.8,2,5.2,3.7,8.1,5.6c0.4-1.3,0.5-1.9,0.7-2.5C664.7,318.5,665.5,320.4,665,324z"/>
		<path d="M654.4,357c1.3-4.9,1.9-5.1,5.7-1.8C658.2,355.8,656.6,356.3,654.4,357z"/>
		<path d="M651.7,355.7c-1-1.3-1.9-2.6-2.9-4c0.1-0.2,0.3-0.5,0.4-0.7c1.2,0.2,2.9,0,3.4,0.7c0.6,0.9,0.1,2.4,0.1,3.7
			C652.5,355.5,652.1,355.6,651.7,355.7z"/>
		<path d="M661.6,347.5c0,1.6,0,3.3,0,4.9c-0.2,0.1-0.5,0.2-0.7,0.3c-0.8-1-2.2-1.9-2.2-2.9c-0.1-0.8,1.4-1.8,2.3-2.6
			C661.1,347.3,661.4,347.4,661.6,347.5z"/>
		<path d="M656.2,347.4c-0.6-1.5-1-2.5-1.7-4.2c2,0.5,3.5,0.9,5,1.3c0,0.3,0,0.5,0.1,0.8C658.5,345.9,657.5,346.6,656.2,347.4z"/>
		<path d="M652.4,344.8c0.2,1.1,0.9,2.7,0.4,3.2c-0.7,0.7-2.2,0.6-3.3,0.9c-0.1-0.2-0.3-0.4-0.4-0.6c0.8-1.2,1.7-2.5,2.5-3.7
			C651.8,344.6,652.1,344.7,652.4,344.8z"/>
	</g>
</g>
<g id="v8juWu.tif">
	<g>
		<path d="M209.3,249.4c3.8,0.4,3.4,2.9,3.4,5.5c0,29.2,0,58.3,0,87.5c0,3.1,1.2,6.8-4,7.4c8.3-2,15.1-0.2,19.6,7
			c3.5,5.5,3.4,11.5-0.1,17c-4.4,6.8-10.9,8.5-18.6,6.8c0,0.2,0,0.4,0,0.4c3.1,0.6,3,2.8,3.2,5.4c0.4,7-0.5,13.5-5.2,18.9
			c-1.5,1.8-3.5,3.3-5.6,4.3c-2.5,1.1-3.5,0.1-3.3-2.7c0.1-0.7,0.2-1.5,0.3-2.4c-5.4-1.8-10,0.4-14.7,3c-0.6-3.6-1.2-7-1.8-10.4
			c-0.2-1.4-0.6-2.4-2.6-1.7c0.4,3.7,0.8,7.4,1.2,11.5c-3.4-3-6.3-0.9-8.9,0.3c1-4.1,2.4-8.2,2.8-12.5c0.4-3.7-0.2-7.6-0.4-11.4
			c-0.1-1.8-1-4.6,1.3-5c2.5-0.4,2.2,2.6,2.5,4.3c0.4,2.2,0.5,4.5,0.9,6.7c0.1,0.6,0.9,1.1,1.4,1.7c0.2-0.2,0.4-0.3,0.6-0.5
			c-1.5-9.7-3.2-19.3-4.4-29.1c-1.9-15.1-3.7-30.2-5.2-45.4c-1.3-13.7,0.9-27.1,4.1-40.3c2.5-10.6,5.6-21.1,10.7-30.8
			c2.6-4.9,2.9-10.1,3.5-15.3c1.7-15.3,7.6-28.9,17.6-40.7c0.2-0.2,0.4-0.3,0.6-0.5c3.5,1.3,4.9,3.5,4.6,7.4
			c-0.4,5.5-0.1,11-0.1,16.5c0,3.6,0,3.6-2.7,5.4c13.4-0.5,20.9,5.5,20.6,16.6C230.3,244.6,222,250.4,209.3,249.4z M192.2,248.1
			c-0.4-0.1-0.8-0.1-1.2-0.2c-2.3,5.4-4.9,10.7-6.9,16.2c-7,19.6-9.1,39.8-7.5,60.5c0.6,8.4,3.6,15.9,7.3,23.7
			c0.2-0.6,0.3-0.9,0.3-1.1c-0.6-10.7,1.6-21.2,3.2-31.7c2.7-18.4,5-36.8,5.6-55.4C193,256.1,192.4,252.1,192.2,248.1z M214.6,356.9
			c-4.7,0-8.4,3.8-8.3,8.5c0.1,4.5,3.9,8.2,8.4,8.2c4.6,0,8.4-3.9,8.3-8.5C223,360.5,219.2,356.8,214.6,356.9z M214.5,225.3
			c-4.6,0-8.3,3.7-8.3,8.3c0,4.6,3.9,8.5,8.5,8.4c4.5-0.1,8.2-3.8,8.3-8.3C223,229.1,219.1,225.3,214.5,225.3z M202.4,291.1
			c-4.2,0-7.7,3.3-7.7,7.5c-0.1,4.2,3.5,7.9,7.6,7.9c4.1,0,7.9-3.7,7.8-7.8C210,294.5,206.5,291.1,202.4,291.1z"/>
		<path d="M218.1,251.1c1.4-0.2,2.6-0.4,4.6-0.8c-0.5,32.6-1,65-1.5,97.6c-1,0-1.4,0.1-1.8,0c-0.4-0.1-0.8-0.3-1.3-0.4
			C218.1,315.4,218.1,283.4,218.1,251.1z"/>
		<path d="M215.1,250.9c0.4,0.4,0.9,0.7,1,1.2c0.2,0.6,0.1,1.3,0.1,2c0,30.2,0,60.5,0,90.7c0,1-0.6,1.9-0.9,2.9
			c-0.2-0.9-0.7-1.9-0.7-2.8c0-30.3,0-60.6,0-90.9c0-0.9,0-1.8,0-2.7C214.7,251.1,214.9,251,215.1,250.9z"/>
		<path d="M221.8,189.4c0,9.3,0,18.3,0,27.3c-1.2-0.2-2.4-0.4-3.8-0.6c0-4.9,0-9.7,0-14.5c0-2.3,0.2-4.7-0.1-7
			C217.6,191.9,219,190.6,221.8,189.4z"/>
		<path d="M215.3,193c0.3,0.7,0.8,1.3,0.8,2c0.1,6.5,0.1,13,0,19.5c0,0.6-0.5,1.2-0.7,1.9c-0.3-0.1-0.5-0.2-0.8-0.3
			c0-7.5,0-15.1,0-22.6C214.9,193.3,215.1,193.1,215.3,193z"/>
		<path d="M214.6,389c0-2.4,0-4.3,0-6.2C216.6,383.1,216.6,384.3,214.6,389z"/>
		<path d="M202.2,305.2c-3.7,0-6.5-2.9-6.4-6.5c0.1-3.6,3-6.4,6.7-6.3c3.5,0.1,6.2,2.9,6.2,6.5C208.8,302.4,205.9,305.2,202.2,305.2
			z M206.3,301.1c0.2-2.2-5.1-5.3-8.3-4.9c0,0.8-0.1,1.6,0,2.4c0.2,1,0.5,2,0.7,3.1c0.4-0.9,0.7-1.9,1.1-2.8
			c0.1-0.2,0.2-0.4,0.4-0.7C202.3,299.1,204.3,300.1,206.3,301.1z"/>
	</g>
</g>
<g>
	<path class="st0" d="M237.6,332.1v1.8h-1.8c-1.1,0-1.7-0.6-1.8-1.8h0.9c0,0.6,0.3,0.9,0.9,0.9v-0.9H237.6z"/>
	<path class="st0" d="M233.9,330.2v-5.5l0.9,0v3.7h1.8v-1.8c0-0.5,0.2-0.9,0.5-1.3c0.4-0.4,0.8-0.5,1.3-0.5h1.8
		c0.5,0,0.9,0.2,1.3,0.5c0.4,0.4,0.5,0.8,0.5,1.3v1.8c0,1.1-0.6,1.7-1.8,1.8v-0.9c0.6,0,0.9-0.3,0.9-0.9v-0.9c0-0.2-0.1-0.5-0.3-0.6
		s-0.4-0.3-0.6-0.3h-1.8c-0.2,0-0.5,0.1-0.6,0.3c-0.2,0.2-0.3,0.4-0.3,0.6v2.8H233.9z"/>
	<path class="st0" d="M233.9,322.9v-5.5h1.8l0.9,0.5l0.9,0.5c1.3,0.6,2.2,0.9,2.8,0.9h1.8v1.8h-1.8c-0.6,0-1.5-0.3-2.8-0.9l-1.8-0.9
		h-0.9v3.7H233.9z"/>
	<path class="st0" d="M240.3,307.4c1.2,0.1,1.8,0.7,1.8,1.8v1.8c0,0.5-0.2,0.9-0.5,1.3c-0.4,0.4-0.8,0.5-1.3,0.5h-4.6
		c-0.5,0-0.9-0.2-1.3-0.5s-0.5-0.8-0.5-1.3v-1.8c0-1.2,0.6-1.8,1.8-1.8v0.9c-0.6,0.1-0.9,0.4-0.9,0.9v0.9c0,0.3,0.1,0.5,0.3,0.6
		c0.2,0.2,0.4,0.3,0.6,0.3h4.6c0.2,0,0.5-0.1,0.6-0.3c0.2-0.2,0.3-0.4,0.3-0.7v-0.9c0-0.5-0.3-0.8-0.9-0.9V307.4z"/>
	<path class="st0" d="M242.1,305.6h-8.2v-1.8h2.8c-0.3,0-0.5-0.1-0.7-0.3c-0.2-0.2-0.2-0.4-0.2-0.6v-0.9c0-0.5,0.2-0.9,0.5-1.3
		s0.8-0.5,1.3-0.5h4.6v1.8h-4.6c-0.3,0-0.5,0.1-0.6,0.3c-0.2,0.2-0.3,0.4-0.3,0.6c0,0.3,0.1,0.5,0.3,0.6c0.2,0.2,0.4,0.3,0.6,0.3
		h4.6V305.6z"/>
	<path class="st0" d="M239.4,292.7v3.7h0.9c0.2,0,0.5-0.1,0.6-0.3c0.2-0.2,0.3-0.4,0.3-0.7v-0.9c0-0.6-0.3-0.9-0.9-0.9v-0.9
		c1.2,0.1,1.8,0.8,1.8,1.8v1.8c0,0.5-0.2,0.9-0.5,1.3c-0.4,0.4-0.8,0.5-1.3,0.5h-2.8c-0.5,0-0.9-0.2-1.3-0.5
		c-0.4-0.4-0.5-0.8-0.5-1.3v-1.8c0-0.5,0.2-0.9,0.5-1.3s0.8-0.5,1.3-0.5H239.4z M238.5,296.4v-1.8h-0.9c-0.3,0-0.5,0.1-0.6,0.3
		c-0.2,0.2-0.3,0.4-0.3,0.6c0,0.3,0.1,0.5,0.3,0.6c0.2,0.2,0.4,0.3,0.6,0.3H238.5z"/>
	<path class="st0" d="M235.7,287.2v-1.8h3.3c0.9,0,1.6,0.3,2.2,0.9c0.6,0.6,0.9,1.4,0.9,2.2v2.4h-6.4v-1.8h5.5v-0.9
		c0-0.3-0.1-0.5-0.3-0.7c-0.2-0.2-0.4-0.3-0.6-0.3H235.7z"/>
	<path class="st0" d="M243.1,282.7c0.6,0,0.9-0.3,0.9-0.9v-0.9c0-0.2-0.1-0.5-0.3-0.6c-0.2-0.2-0.4-0.3-0.6-0.3h-1.8
		c0.6,0.1,0.9,0.4,0.9,0.9v0.9c0,0.5-0.2,0.9-0.5,1.3c-0.4,0.4-0.8,0.5-1.3,0.5h-4.6v-1.8h4.6c0.2,0,0.5-0.1,0.6-0.3
		c0.2-0.2,0.3-0.4,0.3-0.7c0-0.3-0.1-0.5-0.3-0.7c-0.2-0.2-0.4-0.3-0.6-0.3h-4.6v-1.8h7.3c0.5,0,0.9,0.2,1.3,0.5s0.5,0.8,0.5,1.3
		v1.8c0,1.1-0.6,1.7-1.8,1.8V282.7z"/>
</g>
<g>
	<path class="st0" d="M555.7,279.9v-1.8h1.8c1.1,0,1.7,0.6,1.8,1.8h-0.9c0-0.6-0.3-0.9-0.9-0.9v0.9H555.7z"/>
	<path class="st0" d="M559.4,281.8v5.5l-0.9,0v-3.7h-1.8v1.8c0,0.5-0.2,0.9-0.5,1.3c-0.4,0.4-0.8,0.5-1.3,0.5H553
		c-0.5,0-0.9-0.2-1.3-0.5c-0.4-0.4-0.5-0.8-0.5-1.3v-1.8c0-1.1,0.6-1.7,1.8-1.8v0.9c-0.6,0-0.9,0.3-0.9,0.9v0.9
		c0,0.2,0.1,0.5,0.3,0.6c0.2,0.2,0.4,0.3,0.6,0.3h1.8c0.2,0,0.5-0.1,0.6-0.3c0.2-0.2,0.3-0.4,0.3-0.6v-2.8H559.4z"/>
	<path class="st0" d="M559.4,289.1v5.5h-1.8l-0.9-0.5l-0.9-0.5c-1.3-0.6-2.2-0.9-2.8-0.9h-1.8v-1.8h1.8c0.6,0,1.5,0.3,2.8,0.9
		l1.8,0.9h0.9v-3.7H559.4z"/>
	<path class="st0" d="M553,304.6c-1.2-0.1-1.8-0.7-1.8-1.8v-1.8c0-0.5,0.2-0.9,0.5-1.3c0.4-0.4,0.8-0.5,1.3-0.5h4.6
		c0.5,0,0.9,0.2,1.3,0.5s0.5,0.8,0.5,1.3v1.8c0,1.2-0.6,1.8-1.8,1.8v-0.9c0.6-0.1,0.9-0.4,0.9-0.9v-0.9c0-0.3-0.1-0.5-0.3-0.6
		c-0.2-0.2-0.4-0.3-0.6-0.3H553c-0.2,0-0.5,0.1-0.6,0.3c-0.2,0.2-0.3,0.4-0.3,0.7v0.9c0,0.5,0.3,0.8,0.9,0.9V304.6z"/>
	<path class="st0" d="M551.2,306.4h8.2v1.8h-2.8c0.3,0,0.5,0.1,0.7,0.3c0.2,0.2,0.2,0.4,0.2,0.6v0.9c0,0.5-0.2,0.9-0.5,1.3
		s-0.8,0.5-1.3,0.5h-4.6v-1.8h4.6c0.3,0,0.5-0.1,0.6-0.3c0.2-0.2,0.3-0.4,0.3-0.6c0-0.3-0.1-0.5-0.3-0.6c-0.2-0.2-0.4-0.3-0.6-0.3
		h-4.6V306.4z"/>
	<path class="st0" d="M553.9,319.3v-3.7H553c-0.2,0-0.5,0.1-0.6,0.3c-0.2,0.2-0.3,0.4-0.3,0.7v0.9c0,0.6,0.3,0.9,0.9,0.9v0.9
		c-1.2-0.1-1.8-0.8-1.8-1.8v-1.8c0-0.5,0.2-0.9,0.5-1.3c0.4-0.4,0.8-0.5,1.3-0.5h2.8c0.5,0,0.9,0.2,1.3,0.5s0.5,0.8,0.5,1.3v1.8
		c0,0.5-0.2,0.9-0.5,1.3s-0.8,0.5-1.3,0.5H553.9z M554.8,315.6v1.8h0.9c0.3,0,0.5-0.1,0.6-0.3c0.2-0.2,0.3-0.4,0.3-0.6
		c0-0.3-0.1-0.5-0.3-0.6c-0.2-0.2-0.4-0.3-0.6-0.3H554.8z"/>
	<path class="st0" d="M557.6,324.8v1.8h-3.3c-0.9,0-1.6-0.3-2.2-0.9c-0.6-0.6-0.9-1.4-0.9-2.2v-2.4h6.4v1.8h-5.5v0.9
		c0,0.3,0.1,0.5,0.3,0.7c0.2,0.2,0.4,0.3,0.6,0.3H557.6z"/>
	<path class="st0" d="M550.2,329.3c-0.6,0-0.9,0.3-0.9,0.9v0.9c0,0.2,0.1,0.5,0.3,0.6c0.2,0.2,0.4,0.3,0.6,0.3h1.8
		c-0.6-0.1-0.9-0.4-0.9-0.9v-0.9c0-0.5,0.2-0.9,0.5-1.3c0.4-0.4,0.8-0.5,1.3-0.5h4.6v1.8H553c-0.2,0-0.5,0.1-0.6,0.3
		c-0.2,0.2-0.3,0.4-0.3,0.7c0,0.3,0.1,0.5,0.3,0.7c0.2,0.2,0.4,0.3,0.6,0.3h4.6v1.8h-7.3c-0.5,0-0.9-0.2-1.3-0.5
		c-0.4-0.4-0.5-0.8-0.5-1.3v-1.8c0-1.1,0.6-1.7,1.8-1.8V329.3z"/>
</g>
<g>
	<path class="st0" d="M604.2,201.1h-13.9v2.8h-3.5v-7.3h17.4V201.1z"/>
	<path class="st0" d="M604.2,204.9v7.5h-3.5v-3h-3.3v2.8h-3.3v-2.8h-3.8v3.3h-3.5v-7.8H604.2z"/>
	<path class="st0" d="M597.8,224.4v-4.5h1.6c1,0,1.6,0,1.9-0.1s0.4-0.3,0.4-0.6c0-0.3-0.1-0.5-0.3-0.6c-0.2-0.1-0.8-0.2-1.7-0.2
		h-8.3c-0.8,0-1.3,0-1.5,0.2c-0.2,0.1-0.4,0.3-0.4,0.6c0,0.3,0.1,0.6,0.4,0.7s0.8,0.2,1.6,0.2h2.1v-0.9h2.6v5.3h-9.3v-2.8l1.2-0.4
		c-0.5-0.3-0.9-0.7-1.2-1.2c-0.3-0.5-0.4-1-0.4-1.7c0-0.8,0.2-1.5,0.6-2.1c0.4-0.7,0.8-1.2,1.4-1.5s1.1-0.6,1.7-0.6
		c0.6-0.1,1.5-0.1,2.7-0.1h5.2c1.7,0,2.9,0.1,3.6,0.3c0.8,0.2,1.4,0.7,2.1,1.5c0.6,0.8,0.9,1.9,0.9,3.3c0,1.3-0.3,2.4-0.8,3.3
		c-0.5,0.9-1.2,1.4-1.9,1.7c-0.7,0.3-1.8,0.4-3.3,0.4H597.8z"/>
	<path class="st0" d="M604.2,226.2v7.5h-3.5v-3h-3.3v2.8h-3.3v-2.8h-3.8v3.3h-3.5v-7.8H604.2z"/>
	<path class="st0" d="M604.2,245.4h-17.4v-4l7.9-2.4h-7.9v-3.8h17.4v3.8l-7.8,2.5h7.8V245.4z"/>
	<path class="st0" d="M604.2,247.2v3.4c0,2.2-0.1,3.7-0.3,4.4c-0.2,0.8-0.5,1.4-1,1.8c-0.5,0.4-1,0.7-1.5,0.8
		c-0.6,0.1-1.7,0.2-3.3,0.2H592c-1.6,0-2.6-0.1-3.1-0.2c-0.5-0.1-0.9-0.4-1.2-0.8c-0.3-0.4-0.5-0.8-0.6-1.4
		c-0.1-0.5-0.2-1.3-0.2-2.4v-5.7H604.2z M601.2,251.8h-11.4c0,0.7,0.1,1.1,0.4,1.2c0.3,0.2,1,0.2,2.1,0.2h6.8c0.8,0,1.3,0,1.5-0.1
		c0.2-0.1,0.4-0.2,0.5-0.3C601.2,252.6,601.2,252.2,601.2,251.8z"/>
	<path class="st0" d="M599,269v-4.2h1.3c0.6,0,1-0.1,1.1-0.2s0.2-0.3,0.2-0.5c0-0.3-0.1-0.5-0.3-0.6c-0.2-0.1-0.6-0.2-1-0.2
		c-0.6,0-1,0.1-1.3,0.2c-0.3,0.1-0.6,0.6-1.1,1.3c-1.2,2-2.2,3.3-2.9,3.8c-0.8,0.5-2,0.8-3.7,0.8c-1.2,0-2.2-0.1-2.7-0.4
		s-1.1-0.9-1.5-1.7c-0.4-0.8-0.6-1.8-0.6-2.9c0-1.2,0.2-2.2,0.7-3.1c0.5-0.9,1-1.4,1.8-1.7c0.7-0.3,1.7-0.4,3-0.4h1.1v4.2h-2.1
		c-0.7,0-1.1,0.1-1.3,0.2s-0.3,0.3-0.3,0.6s0.1,0.5,0.4,0.7c0.2,0.1,0.6,0.2,1.1,0.2c1,0,1.7-0.1,2-0.4c0.3-0.3,0.8-1,1.6-2.1
		c0.7-1.1,1.3-1.9,1.6-2.2s0.8-0.7,1.4-0.9c0.6-0.2,1.4-0.4,2.3-0.4c1.3,0,2.3,0.2,2.9,0.5c0.6,0.3,1.1,0.9,1.4,1.6
		c0.3,0.8,0.5,1.7,0.5,2.8c0,1.2-0.2,2.2-0.6,3s-0.9,1.4-1.4,1.6c-0.6,0.3-1.6,0.4-2.9,0.4H599z"/>
	<path class="st0" d="M594,285c-1.7,0-3,0-3.7-0.1c-0.7-0.1-1.4-0.3-2-0.8c-0.6-0.4-1.1-1-1.4-1.8c-0.3-0.7-0.5-1.6-0.5-2.6
		c0-0.9,0.2-1.8,0.5-2.5c0.3-0.7,0.8-1.3,1.4-1.8s1.3-0.7,2-0.8s2-0.1,3.8-0.1h3c1.7,0,3,0,3.7,0.1c0.7,0.1,1.4,0.3,2,0.8
		c0.6,0.4,1.1,1,1.4,1.8c0.3,0.7,0.5,1.6,0.5,2.6c0,0.9-0.2,1.8-0.5,2.5c-0.3,0.7-0.8,1.3-1.4,1.8s-1.3,0.7-2,0.8s-2,0.1-3.8,0.1
		H594z M599.7,280.5c0.8,0,1.3,0,1.6-0.1c0.2-0.1,0.3-0.3,0.3-0.6c0-0.2-0.1-0.4-0.3-0.5c-0.2-0.1-0.7-0.2-1.6-0.2h-8.1
		c-1,0-1.6,0-1.9,0.1c-0.2,0.1-0.4,0.3-0.4,0.6c0,0.3,0.1,0.5,0.4,0.6s0.9,0.1,1.9,0.1H599.7z"/>
	<path class="st0" d="M604.2,286.7v7.7h-3.5v-3.1h-3.3v2.8h-3.3v-2.8h-7.3v-4.5H604.2z"/>
	<path class="st0" d="M599,308.9v-4.2h1.3c0.6,0,1-0.1,1.1-0.2s0.2-0.3,0.2-0.5c0-0.3-0.1-0.5-0.3-0.6c-0.2-0.1-0.6-0.2-1-0.2
		c-0.6,0-1,0.1-1.3,0.2c-0.3,0.1-0.6,0.6-1.1,1.3c-1.2,2-2.2,3.3-2.9,3.8c-0.8,0.5-2,0.8-3.7,0.8c-1.2,0-2.2-0.1-2.7-0.4
		s-1.1-0.9-1.5-1.7c-0.4-0.8-0.6-1.8-0.6-2.9c0-1.2,0.2-2.2,0.7-3.1c0.5-0.9,1-1.4,1.8-1.7c0.7-0.3,1.7-0.4,3-0.4h1.1v4.2h-2.1
		c-0.7,0-1.1,0.1-1.3,0.2s-0.3,0.3-0.3,0.6s0.1,0.5,0.4,0.7c0.2,0.1,0.6,0.2,1.1,0.2c1,0,1.7-0.1,2-0.4c0.3-0.3,0.8-1,1.6-2.1
		c0.7-1.1,1.3-1.9,1.6-2.2s0.8-0.7,1.4-0.9c0.6-0.2,1.4-0.4,2.3-0.4c1.3,0,2.3,0.2,2.9,0.5c0.6,0.3,1.1,0.9,1.4,1.6
		c0.3,0.8,0.5,1.7,0.5,2.8c0,1.2-0.2,2.2-0.6,3s-0.9,1.4-1.4,1.6c-0.6,0.3-1.6,0.4-2.9,0.4H599z"/>
	<path class="st0" d="M604.2,310.7v4.6c0,1.2-0.1,2.2-0.3,2.8c-0.2,0.7-0.5,1.2-0.8,1.5c-0.4,0.3-0.8,0.6-1.3,0.7
		c-0.5,0.1-1.3,0.2-2.4,0.2h-1.5c-1.1,0-1.9-0.1-2.4-0.3s-0.9-0.6-1.2-1.3c-0.3-0.6-0.4-1.4-0.4-2.4v-1.2h-7v-4.5H604.2z
		 M601.2,315.2h-4.4c0,0.1,0,0.2,0,0.3c0,0.4,0.1,0.7,0.3,0.9c0.2,0.2,0.6,0.2,1.3,0.2h1.4c0.6,0,1-0.1,1.2-0.3
		S601.2,315.8,601.2,315.2z"/>
	<path class="st0" d="M604.2,321.7v7.5h-3.5v-3h-3.3v2.8h-3.3v-2.8h-3.8v3.3h-3.5v-7.8H604.2z"/>
	<path class="st0" d="M604.2,330.9v7.5h-3.5v-3h-3.3v2.8h-3.3v-2.8h-3.8v3.3h-3.5v-7.8H604.2z"/>
	<path class="st0" d="M604.2,340v3.4c0,2.2-0.1,3.7-0.3,4.4c-0.2,0.8-0.5,1.4-1,1.8s-1,0.7-1.5,0.8c-0.6,0.1-1.7,0.2-3.3,0.2H592
		c-1.6,0-2.6-0.1-3.1-0.2c-0.5-0.1-0.9-0.4-1.2-0.8c-0.3-0.4-0.5-0.8-0.6-1.4c-0.1-0.5-0.2-1.3-0.2-2.4V340H604.2z M601.2,344.5
		h-11.4c0,0.7,0.1,1.1,0.4,1.2c0.3,0.2,1,0.2,2.1,0.2h6.8c0.8,0,1.3,0,1.5-0.1s0.4-0.2,0.5-0.3C601.2,345.4,601.2,345,601.2,344.5z"
		/>
	<path class="st0" d="M604.2,356v7.5h-3.5v-3h-3.3v2.8h-3.3v-2.8h-3.8v3.3h-3.5V356H604.2z"/>
	<path class="st0" d="M604.2,365.2v3.4c0,2.2-0.1,3.7-0.3,4.4c-0.2,0.8-0.5,1.4-1,1.8s-1,0.7-1.5,0.8c-0.6,0.1-1.7,0.2-3.3,0.2H592
		c-1.6,0-2.6-0.1-3.1-0.2c-0.5-0.1-0.9-0.4-1.2-0.8c-0.3-0.4-0.5-0.8-0.6-1.4c-0.1-0.5-0.2-1.3-0.2-2.4v-5.7H604.2z M601.2,369.7
		h-11.4c0,0.7,0.1,1.1,0.4,1.2c0.3,0.2,1,0.2,2.1,0.2h6.8c0.8,0,1.3,0,1.5-0.1s0.4-0.2,0.5-0.3C601.2,370.5,601.2,370.2,601.2,369.7
		z"/>
	<path class="st0" d="M604.2,381.9h-17.4v-4.5h17.4V381.9z"/>
	<path class="st0" d="M604.2,392.8h-3.5v-2.7h-13.9v-4.5h13.9v-2.7h3.5V392.8z"/>
	<path class="st0" d="M604.2,398.3h-17.4v-4.5h17.4V398.3z"/>
	<path class="st0" d="M594,410.5c-1.7,0-3,0-3.7-0.1c-0.7-0.1-1.4-0.3-2-0.8c-0.6-0.4-1.1-1-1.4-1.8s-0.5-1.6-0.5-2.6
		c0-0.9,0.2-1.8,0.5-2.5c0.3-0.7,0.8-1.3,1.4-1.8s1.3-0.7,2-0.8s2-0.1,3.8-0.1h3c1.7,0,3,0,3.7,0.1c0.7,0.1,1.4,0.3,2,0.8
		c0.6,0.4,1.1,1,1.4,1.8s0.5,1.6,0.5,2.6c0,0.9-0.2,1.8-0.5,2.5c-0.3,0.7-0.8,1.3-1.4,1.8s-1.3,0.7-2,0.8s-2,0.1-3.8,0.1H594z
		 M599.7,406c0.8,0,1.3,0,1.6-0.1c0.2-0.1,0.3-0.3,0.3-0.6c0-0.2-0.1-0.4-0.3-0.5c-0.2-0.1-0.7-0.2-1.6-0.2h-8.1c-1,0-1.6,0-1.9,0.1
		c-0.2,0.1-0.4,0.3-0.4,0.6c0,0.3,0.1,0.5,0.4,0.6s0.9,0.1,1.9,0.1H599.7z"/>
	<path class="st0" d="M604.2,422.3h-17.4v-4l7.9-2.4h-7.9v-3.8h17.4v3.8l-7.8,2.5h7.8V422.3z"/>
</g>
<g id="oL2iBB.tif_1_">
	<g>
		<path d="M415.5,378.5c-0.4,0.6-0.8,1.2-1.1,1.9c-0.7,1.3-1,2.7-1.3,4.2c-0.2,1.3-0.2,2.7-0.1,4.1c0.1,0.8,0.1,1.6,0.2,2.5
			c0.8-1,1.8-1.6,2.9-2.2c-0.2,0.3-0.4,0.6-0.6,0.9c-0.8,1.3-1.3,2.8-1.5,4.3c-0.2,1.3-0.2,2.6-0.1,3.9c0.1,1.6,0.3,3.3,0.5,4.9
			c0.3,2,0.7,4,1.1,5.9c1.1,5.1,2.2,10.3,3.3,15.4c0.6,2.7,1,5.5,1.4,8.2c0.3,2.2,0.5,4.4,0.4,6.6c-0.1,3.2-0.6,6.4-1.9,9.4
			c-0.8,1.8-1.8,3.4-3.4,4.6c-1.4,1.1-2.9,1.8-4.7,2c-2.3,0.2-4.3-0.4-6.2-1.6c0,0-0.1,0-0.1-0.1c0.4,0,0.7,0.1,1.1,0.1
			c2,0,3.6-0.9,4.7-2.6c0.7-1.2,1.1-2.5,1.2-3.8c0.2-2.3-0.2-4.6-0.7-6.8c-0.7-2.9-1.7-5.7-2.9-8.4c-1.3-3.1-2.7-6.2-4-9.4
			c-1.5-3.8-2.8-7.7-3.5-11.7c-0.4-1.8-0.6-3.7-0.8-5.6c-0.1-1.7-0.2-3.3-0.1-5c0.2-2.7,0.7-5.3,1.5-7.9c1.1-3.3,2.8-6.3,5.2-8.9
			c0.1-0.1,0.3-0.3,0.4-0.4c-0.2,0.3-0.3,0.6-0.5,1c-0.5,1.2-0.8,2.5-0.8,3.8c0,0.8,0.2,1.6,0.2,2.3c0,0.8,0.1,1.6,0.1,2.4
			c0,0.4-0.2,0.7-0.4,1c-0.2,0.3-0.4,0.6-0.6,1c-0.3,0.8-0.2,1.6,0.4,2.3c0.7,0.9,1.6,1.4,2.7,1.4c0.9,0,1.5-0.7,1.4-1.5
			c-0.1-0.5-0.2-0.9-0.3-1.3c-0.5-1.7-0.8-3.5-0.8-5.3c0-2.2,0.5-4.3,1.6-6.1c0.8-1.3,1.8-2.3,2.9-3.3
			C413.4,379.8,414.5,379,415.5,378.5z M411.5,452.4C411.5,452.4,411.5,452.4,411.5,452.4c0.2-0.1,0.3-0.3,0.2-0.6
			c-0.1-0.2-0.3-0.3-0.6-0.3c-0.2,0.1-0.4,0.2-0.4,0.5c0,0.2,0.1,0.4,0.3,0.5C411.2,452.6,411.4,452.6,411.5,452.4z M413.3,403.2
			c-0.2-1.3-0.3-2.5-0.4-3.8c-0.1-1.2-0.1-2.5-0.2-3.8c-0.1,0.1-0.1,0.2-0.1,0.3c-0.3,0.6-0.6,1.3-0.9,1.9c-0.5,0.9-1.2,1.7-2.1,2.2
			c-1.2,0.6-2.4,0.6-3.7,0.3c-2.2-0.5-3.8-1.8-4.9-3.7c0-0.1-0.1-0.1-0.1-0.2c0,0.1,0,0.2-0.1,0.2c-0.3,1.3-0.4,2.7-0.4,4.1
			c0,0.6,0,1.2,0,1.8c0,0.2,0.1,0.3,0.3,0.2c0.4-0.1,0.8-0.2,1.2-0.2c1.1-0.1,2.2-0.1,3.3,0.3c0.2,0.1,0.4,0.2,0.6,0.3
			c0.2,0.2,0.2,0.4,0,0.6c-0.2,0.1-0.5,0.2-0.7,0.3c-1.1,0.2-2.3,0.1-3.4,0c-0.4-0.1-0.8-0.1-1.3-0.2c0.2,1.8,0.3,3.6,0.7,5.5
			c0.1,0,0.1,0,0.1-0.1c0,0,0.1-0.1,0.1-0.1c0.5-1.1,1.4-1.7,2.5-2.1c1.2-0.5,2.5-0.7,3.9-0.5c0.8,0.1,1.6,0.2,2.3,0.4
			c1.4,0.4,2.7,0.9,3.8,1.9c0.3,0.2,0.5,0.5,0.8,0.8c-0.3-1.9-0.7-3.6-1-5.5c-0.2,0-0.4,0.1-0.5,0.1c-1.2,0.2-2.4,0.2-3.6,0
			c-0.4-0.1-0.7-0.2-1-0.3c-0.1-0.1-0.3-0.3-0.3-0.4c0-0.1,0.2-0.3,0.3-0.3c0.4-0.1,0.8-0.3,1.3-0.3
			C410.9,402.7,412.1,402.8,413.3,403.2z M409.7,424.1C409.7,424.1,409.6,424.1,409.7,424.1c-0.1,0.1-0.2,0.1-0.3,0.1
			c-1,0.1-2,0.4-2.8,1c-0.4,0.3-0.4,0.3-0.2,0.8c0.2,0.5,0.4,1,0.6,1.4c0.4-0.1,0.7-0.1,1-0.1c0.8,0,1.6,0.2,2.4,0.6
			c0.8,0.3,1.6,0.7,2.4,0.9c1.9,0.5,3.7,0,5.3-1.1c0.1-0.1,0.2-0.2,0.1-0.4c-0.1-0.6-0.2-1.2-0.3-1.8c-0.1-0.4-0.1-0.7-0.2-1.1
			c-0.5,1.1-1.4,1.7-2.5,1.9c-1.1,0.2-2.1,0.1-3.1-0.4c1-0.1,1.9-0.8,2.1-1.4c-1.2-0.2-2.3-0.6-3.2-1.6c0.1,0,0.1,0,0.2,0
			c1,0.2,2,0.2,3.1,0c1-0.2,1.9-0.6,2.6-1.5c0.1-0.1,0.1-0.3,0.1-0.5c-0.3-1.1-0.5-2.3-0.7-3.4c-0.1-0.4-0.2-0.7-0.2-1.1
			c-0.1,0.1-0.1,0.1-0.1,0.2c-0.7,2-2.1,3.1-4.1,3.6c-1,0.2-2.1,0.2-3.1,0.1c-1.9-0.2-3.6-0.7-5.1-1.8c0,0-0.1,0-0.2-0.1
			c0.5,1.4,1,2.7,1.5,4.1c0.2,0.5,0.2,0.5,0.7,0.4c1.1-0.1,2.2,0.2,3.1,0.6C409.1,423.7,409.4,423.9,409.7,424.1z M418.4,428.1
			c-0.1,0.1-0.2,0.2-0.3,0.2c-0.4,0.3-0.8,0.6-1.2,0.8c-1.6,0.8-3.2,0.9-4.9,0.6c-1.5-0.3-2.9-0.8-4.3-1.5c-0.1-0.1-0.3-0.1-0.4-0.2
			c0,0.1,0,0.1,0,0.2c0.5,1.1,1,2.2,1.4,3.4c0.1,0.2,0.2,0.2,0.3,0.2c0.6-0.1,1.1-0.1,1.7-0.2c0.6,0,1.2,0.1,1.8,0.3
			c0.2,0.1,0.5,0.2,0.4,0.4c0,0.1-0.3,0.3-0.4,0.3c-0.8,0.3-1.7,0.3-2.5,0.3c-0.2,0-0.5-0.1-0.7-0.1c0.4,1.1,0.8,2.2,1.2,3.4
			c0.3-0.5,0.6-0.7,1-1c1.5-0.8,3-1,4.7-0.7c1.2,0.2,2.2,0.8,3.1,1.5c0.1,0.1,0.1,0.1,0.3,0.2c-0.1-1.2-0.2-2.3-0.3-3.4
			c-0.6,0-1.3,0-1.9,0c-0.6-0.1-1.1-0.2-1.7-0.3c-0.2-0.1-0.5-0.2-0.5-0.5c0-0.3,0.3-0.3,0.5-0.4c0.8-0.2,1.6-0.3,2.4-0.2
			c0.3,0,0.6,0.1,1,0.1C418.8,430.4,418.6,429.3,418.4,428.1z M408.9,413.5c0.1,0,0.3,0,0.4,0c1.1,0,2.2-0.2,3.1-0.8
			c0.7-0.4,1.2-1.1,1.1-1.9c0-0.6-0.4-1.2-0.8-1.6c-0.9-0.9-2-1.4-3.2-1.6c-0.7-0.1-1.4-0.2-2.1-0.3c-1.5-0.2-2.8,0.1-4.1,0.9
			c-1.3,0.8-1.6,1.9-0.7,3.2c0.5,0.7,1.2,1.1,1.9,1.4C405.9,413.3,407.4,413.4,408.9,413.5z M414.3,412
			C414.2,412.1,414.2,412,414.3,412c-0.1,0-0.1,0.1-0.1,0.1c-0.2,0.6-0.7,0.9-1.2,1.2c-0.9,0.5-1.9,0.8-3,0.9c-2,0.2-4-0.1-5.9-0.8
			c-0.2-0.1-0.4-0.1-0.6-0.2c-0.3,0-0.5,0.1-0.5,0.5c0,0.1,0,0.2,0,0.3c0.2,0.5,0.4,1,0.7,1.4c1.2,1.7,2.9,2.5,4.8,2.9
			c0,0,0.1,0,0.1,0c-0.3-0.2-0.5-0.3-0.7-0.5c-0.2-0.2-0.4-0.5-0.5-0.8c-0.1-0.2,0-0.4,0.3-0.4c0.7,0.1,1.4,0.2,2,0.2
			c0.2,0,0.4,0.1,0.5,0.3c0.1,0.1,0.2,0.3,0.3,0.4c0.3,0.5,0.8,0.8,1.4,0.9c0.2,0.1,0.5,0,0.7,0c-0.2-0.5-0.4-1-0.5-1.5
			c-0.2-0.5-0.1-0.6,0.4-0.8c1.3-0.7,2.1-2.1,2-3.6C414.4,412.5,414.3,412.3,414.3,412z M414.3,439.4
			C414.3,439.4,414.3,439.4,414.3,439.4c-0.1-0.1-0.2-0.2-0.3-0.3c-0.3-0.3-0.6-0.6-0.9-0.9c-0.2-0.3-0.2-0.6,0-0.8
			c0.2-0.2,0.5-0.3,0.8-0.2c0.2,0.1,0.5,0.2,0.7,0.4c0.5,0.4,0.9,0.9,1.3,1.4c0.6,0.6,1.4,1,2.4,1.1c0.5,0,0.9-0.2,1.1-0.7
			c0.3-0.5,0.3-1.1,0.1-1.6c-0.3-0.8-0.8-1.4-1.5-1.8c-1.1-0.7-2.3-1-3.6-1.1c-0.9,0-1.8,0.1-2.6,0.6c-1.3,0.7-1.1,2.1-0.3,2.9
			C412.2,439.2,413.2,439.3,414.3,439.4z M414.9,444.1c-0.2-0.2-0.4-0.4-0.6-0.7c-0.2-0.3-0.4-0.6-0.4-0.9c-0.1-0.4,0.2-0.7,0.6-0.6
			c0.2,0.1,0.4,0.2,0.6,0.4c0.4,0.4,0.7,0.8,1.1,1.1c0.4,0.4,1,0.7,1.6,0.8c0.6,0.1,1.1-0.1,1.3-0.6c0.1-0.2,0.1-0.5,0.1-0.8
			c-0.1-0.7-0.5-1.2-1.1-1.7c-1.1-0.8-2.3-1.1-3.6-1.1c-0.6,0-1.2,0.2-1.8,0.5c-0.4,0.3-0.7,0.7-0.6,1.2c0,0.3,0.1,0.6,0.3,0.8
			C412.9,443.5,413.8,443.9,414.9,444.1z M412.4,443.9c0,1.3,0,2.6,0,4c0.8,0,1.6,0,2.4,0c-0.3-0.2-0.6-0.5-0.8-0.8
			c-0.2-0.4-0.1-0.8,0.4-0.9c0.3,0,0.6-0.1,0.9,0c1,0.1,1.9,0.4,2.8,0.7c0.1,0,0.2,0.1,0.3,0.1c0.2-0.7,0.4-1.4,0.6-2.1
			C416.5,445.3,414.4,445.1,412.4,443.9z M413.7,448.6c-0.3,0-0.6,0-0.9,0c-0.6,0-0.7,0-0.9,0.6c-0.1,0.4-0.3,0.8-0.3,1.2
			c-0.1,0.5,0.3,0.9,0.8,1c0.6,0.2,1.1,0,1.6-0.4c0.3-0.3,0.5-0.5,0.8-0.8c0.1-0.1,0.3-0.2,0.4-0.3c0.1,0,0.2,0,0.3,0
			c0.1,0,0.1,0.2,0.1,0.3c0,0.1-0.1,0.3-0.2,0.4c-0.2,0.2-0.5,0.5-0.7,0.7c0,0-0.1,0.1-0.2,0.1c1.1,0.1,2.2-0.9,2.3-1.9
			c0-0.6-0.3-1-0.9-1.1c-0.4,0-0.8,0.1-1.1,0.4c-0.3,0.3-0.6,0.6-1,0.8c-0.2,0.1-0.3,0.3-0.5,0.4c-0.2,0.1-0.4,0-0.3-0.3
			c0-0.1,0.1-0.2,0.1-0.3C413.3,449,413.5,448.8,413.7,448.6z"/>
		<path d="M411.5,452.4C411.5,452.4,411.5,452.4,411.5,452.4c-0.1,0-0.1,0.1-0.2,0.1c-0.2,0-0.4,0-0.5-0.2c-0.1-0.2-0.1-0.4,0.1-0.5
			c0.2-0.1,0.3-0.2,0.5-0.1c0.2,0.1,0.2,0.3,0.2,0.5C411.6,452.3,411.6,452.4,411.5,452.4z M411.5,451.9c-0.2,0-0.3,0-0.5,0
			c0,0,0,0,0,0c0.1,0,0.1,0.1,0.3,0.1c-0.1,0.1-0.2,0.1-0.3,0.2c0.1,0,0.2,0,0.3,0C411.5,452.3,411.5,452.3,411.5,451.9z"/>
		<path d="M407.8,411.2c-0.9-0.1-1.9-0.2-2.8-0.3c-0.3,0-0.5-0.2-0.8-0.3c-0.3-0.2-0.3-0.6,0-0.8c0.5-0.3,1-0.3,1.5-0.4
			c1.4-0.1,2.7-0.1,4.1,0.2c0.4,0.1,0.8,0.2,1.2,0.3c0,0,0.1,0,0.1,0.1c0.2,0.1,0.4,0.2,0.4,0.5c0,0.3-0.2,0.4-0.4,0.4
			c-0.6,0.1-1.1,0.2-1.7,0.3C408.9,411.2,408.4,411.2,407.8,411.2C407.9,411.2,407.9,411.2,407.8,411.2z"/>
		<path d="M415.4,437c1,0,1.9,0.3,2.6,0.9c0.2,0.2,0.3,0.5,0.2,0.6c-0.1,0.2-0.4,0.3-0.7,0.2c-0.5-0.1-0.9-0.5-1.3-0.9
			C416,437.6,415.7,437.3,415.4,437z"/>
		<path d="M415.9,441.7c0.6,0,1.2,0.2,1.8,0.6c0.1,0.1,0.2,0.2,0.3,0.3c0.2,0.2,0,0.5-0.3,0.5c-0.2,0-0.4-0.1-0.6-0.2
			c-0.3-0.2-0.5-0.4-0.7-0.6C416.2,442.2,416,441.9,415.9,441.7z"/>
	</g>
</g>
<g>
	<path class="st0" d="M412.1,156.7h7.5v1.7h-6.7v2.5h-0.8V156.7z"/>
	<path class="st0" d="M412.1,162.5h7.5v4.2h-0.8v-2.5h-2.5v1.7h-0.8v-1.7h-2.5v2.5h-0.8V162.5z"/>
	<path class="st0" d="M416.2,170.8v2.5h-2.5c-0.6,0-1-0.2-1.2-0.5c-0.3-0.4-0.4-0.7-0.4-1.1V170c0-0.5,0.2-0.8,0.5-1.2
		c0.3-0.3,0.7-0.5,1.2-0.5h4.2c0.4,0,0.8,0.2,1.2,0.5c0.3,0.3,0.5,0.7,0.5,1.2v1.7c0,1-0.6,1.6-1.7,1.7v-0.8
		c0.6-0.1,0.8-0.3,0.8-0.8v-0.8c0-0.2-0.1-0.4-0.2-0.6c-0.2-0.2-0.4-0.2-0.6-0.2h-4.2c-0.2,0-0.4,0.1-0.6,0.2
		c-0.2,0.2-0.2,0.4-0.2,0.6c0,0.5,0.3,0.8,0.8,0.8h1.7v-0.8H416.2z"/>
	<path class="st0" d="M412.1,175h7.5v4.2h-0.8v-2.5h-2.5v1.7h-0.8v-1.7h-2.5v2.5h-0.8V175z"/>
	<path class="st0" d="M412.1,180.8h7.5v0.4l-4.2,4.6h4.2v0.8h-7.5v-0.4l4.2-4.6h-4.2V180.8z"/>
	<path class="st0" d="M412.1,188.3h7.5v3.3c0,0.5-0.2,0.8-0.5,1.2c-0.3,0.3-0.7,0.5-1.2,0.5h-4.2c-0.4,0-0.8-0.2-1.2-0.5
		c-0.3-0.3-0.5-0.7-0.5-1.2V188.3z M412.9,190v0.8c0,0.2,0.1,0.4,0.2,0.6c0.2,0.2,0.4,0.2,0.6,0.2h4.2c0.2,0,0.4-0.1,0.6-0.2
		c0.2-0.2,0.2-0.4,0.2-0.6V190H412.9z"/>
	<path class="st0" d="M417.9,199.1v-0.8c0.6-0.1,0.8-0.3,0.8-0.8c0-0.3-0.1-0.5-0.2-0.7c-0.1-0.1-0.3-0.2-0.6-0.2
		c-0.2,0-0.4,0.1-0.6,0.2l-2,1.8c-0.4,0.3-0.8,0.5-1.2,0.5h-0.4c-0.4,0-0.8-0.2-1.2-0.5c-0.3-0.3-0.5-0.7-0.5-1.2v-0.8
		c0-0.6,0.1-1,0.4-1.2c0.3-0.3,0.7-0.4,1.2-0.4v0.8c-0.1,0-0.1,0-0.1,0c-0.2,0-0.4,0.1-0.5,0.3s-0.2,0.4-0.2,0.6
		c0,0.3,0.1,0.5,0.2,0.6c0.1,0.1,0.4,0.2,0.6,0.2c0.2,0,0.4-0.1,0.6-0.2l2-1.8c0.4-0.3,0.8-0.5,1.2-0.5h0.4c0.5,0,0.8,0.2,1.2,0.5
		c0.3,0.3,0.5,0.7,0.5,1.2v0.8C419.5,198.5,419,199.1,417.9,199.1z"/>
	<path class="st0" d="M419.5,204.9v1.7c0,0.5-0.2,0.8-0.5,1.2c-0.3,0.3-0.7,0.5-1.2,0.5h-4.2c-0.4,0-0.8-0.2-1.2-0.5
		c-0.3-0.3-0.5-0.7-0.5-1.2v-1.7c0-0.5,0.2-0.8,0.5-1.2c0.3-0.3,0.7-0.5,1.2-0.5h4.2c0.5,0,0.8,0.2,1.2,0.5
		C419.4,204,419.5,204.4,419.5,204.9z M417.9,204.9h-4.2c-0.2,0-0.4,0.1-0.6,0.2c-0.2,0.2-0.2,0.4-0.2,0.6s0.1,0.4,0.2,0.6
		c0.2,0.2,0.4,0.2,0.6,0.2h4.2c0.2,0,0.4-0.1,0.6-0.2c0.2-0.2,0.2-0.4,0.2-0.6c0-0.2-0.1-0.4-0.2-0.6
		C418.3,205,418.1,204.9,417.9,204.9z"/>
	<path class="st0" d="M412.1,209.9h7.5v4.2h-0.8v-2.5h-2.5v1.7h-0.8v-1.7h-3.3V209.9z"/>
	<path class="st0" d="M405.9,175v-0.8c0.6-0.1,0.8-0.3,0.8-0.8c0-0.3-0.1-0.5-0.2-0.7c-0.1-0.1-0.3-0.2-0.6-0.2
		c-0.2,0-0.4,0.1-0.6,0.2l-2,1.8c-0.4,0.3-0.8,0.5-1.2,0.5h-0.4c-0.4,0-0.8-0.2-1.2-0.5c-0.3-0.3-0.5-0.7-0.5-1.2v-0.8
		c0-0.6,0.1-1,0.4-1.2c0.3-0.3,0.7-0.4,1.2-0.4v0.8c-0.1,0-0.1,0-0.1,0c-0.2,0-0.4,0.1-0.5,0.3s-0.2,0.4-0.2,0.6
		c0,0.3,0.1,0.5,0.2,0.6c0.1,0.1,0.4,0.2,0.6,0.2c0.2,0,0.4-0.1,0.6-0.2l2-1.8c0.4-0.3,0.8-0.5,1.2-0.5h0.4c0.5,0,0.8,0.2,1.2,0.5
		c0.3,0.3,0.5,0.7,0.5,1.2v0.8C407.6,174.4,407,174.9,405.9,175z"/>
	<path class="st0" d="M400.1,176.6h7.5v3.3c0,0.5-0.2,0.8-0.5,1.2c-0.3,0.3-0.7,0.5-1.2,0.5h-0.8c-0.5,0-0.8-0.2-1.2-0.5
		c-0.3-0.3-0.5-0.7-0.5-1.2v-1.7h-3.3V176.6z M404.2,178.3v0.8c0,0.2,0.1,0.4,0.2,0.6c0.2,0.2,0.4,0.2,0.6,0.2h0.8
		c0.2,0,0.4-0.1,0.6-0.2c0.2-0.2,0.2-0.4,0.2-0.6v-0.8H404.2z"/>
	<path class="st0" d="M400.1,183.3h7.5v4.2h-0.8V185h-2.5v1.7h-0.8V185h-2.5v2.5h-0.8V183.3z"/>
	<path class="st0" d="M400.1,189.1h7.5v4.2h-0.8v-2.5h-2.5v1.7h-0.8v-1.7h-2.5v2.5h-0.8V189.1z"/>
	<path class="st0" d="M400.1,194.9h7.5v3.3c0,0.5-0.2,0.8-0.5,1.2c-0.3,0.3-0.7,0.5-1.2,0.5h-4.2c-0.4,0-0.8-0.2-1.2-0.5
		c-0.3-0.3-0.5-0.7-0.5-1.2V194.9z M400.9,196.6v0.8c0,0.2,0.1,0.4,0.2,0.6c0.2,0.2,0.4,0.2,0.6,0.2h4.2c0.2,0,0.4-0.1,0.6-0.2
		c0.2-0.2,0.2-0.4,0.2-0.6v-0.8H400.9z"/>
</g>
</svg>
